<svg xmlns="http://www.w3.org/2000/svg" viewBox="32 7.16 960.01 213.68">
  <linearGradient id="a" x1="32" x2="179.954" y1="114.572" y2="114.572" gradientUnits="userSpaceOnUse">
    <stop offset="0" stop-color="#2d2558"/>
    <stop offset="1" stop-color="#564398"/>
  </linearGradient>
  <path fill="url(#a)" d="M151.65 220.82h-42.23c-42.53 0-77.26-34.6-77.42-77.13-.08-20.54 7.96-39.96 22.61-54.67 14.8-14.85 34.42-23.04 55.25-23.04h31.44V8.32h38.65v184.2c0 15.61-12.69 28.3-28.3 28.3zm-41.78-116.18c-10.48 0-20.38 4.14-27.87 11.66-7.35 7.38-11.38 17.06-11.34 27.25.08 21.3 17.47 38.62 38.77 38.62h31.89v-77.53h-31.45z"/>
  <linearGradient id="b" x1="213.083" x2="288.387" y1="143.406" y2="143.406" gradientUnits="userSpaceOnUse">
    <stop offset="0" stop-color="#2d2558"/>
    <stop offset="1" stop-color="#564398"/>
  </linearGradient>
  <path fill="url(#b)" d="M288.39 194.62a77.145 77.145 0 0 1-27.91 20.11c-9.56 4.04-19.7 6.09-30.14 6.09h-17.25v-38.65h17.25c20.74 0 37.72-16.37 38.72-36.86.24 9.77 2.27 19.26 6.07 28.23a76.484 76.484 0 0 0 13.26 21.08m0-102.43a77.145 77.145 0 0 0-27.91-20.11c-9.56-4.04-19.7-6.09-30.14-6.09h-17.25v38.65h17.25c20.74 0 37.72 16.37 38.72 36.86.24-9.77 2.27-19.26 6.07-28.23a76.484 76.484 0 0 1 13.26-21.08"/>
  <path fill="#2ea7dd" d="M307.68 143.41c0 .63.02 1.26.05 1.89a76.758 76.758 0 0 1-6.07 28.25 77.138 77.138 0 0 1-13.27 21.08c-5.54-6.27-10-13.34-13.27-21.08a77.06 77.06 0 0 1-6.07-28.23c.03-.63.05-1.27.05-1.91s-.02-1.28-.05-1.91c.24-9.77 2.27-19.26 6.07-28.23a77.138 77.138 0 0 1 13.27-21.08c5.54 6.27 10 13.34 13.27 21.08 3.8 8.98 5.84 18.47 6.07 28.25-.04.62-.05 1.25-.05 1.89"/>
  <linearGradient id="c" x1="288.387" x2="363.692" y1="143.406" y2="143.406" gradientUnits="userSpaceOnUse">
    <stop offset="0" stop-color="#297cc7"/>
    <stop offset="1" stop-color="#53aed1"/>
  </linearGradient>
  <path fill="url(#c)" d="M363.69 65.99v38.65h-17.25c-20.74 0-37.73 16.37-38.72 36.88a76.801 76.801 0 0 0-6.07-28.25 77.138 77.138 0 0 0-13.27-21.08c1.07-1.21 2.17-2.38 3.32-3.53 7.1-7.1 15.38-12.68 24.6-16.58 9.56-4.04 19.7-6.09 30.14-6.09h17.25zm-17.25 116.18c-20.74 0-37.73-16.37-38.72-36.88a76.758 76.758 0 0 1-6.07 28.25 77.138 77.138 0 0 1-13.27 21.08c1.07 1.21 2.17 2.38 3.32 3.53 7.1 7.1 15.38 12.68 24.6 16.58 9.56 4.04 19.7 6.09 30.14 6.09h17.25v-38.65h-17.25z"/>
  <linearGradient id="d" x1="409.876" x2="992" y1="114" y2="114" gradientUnits="userSpaceOnUse">
    <stop offset="0" stop-color="#2d2558"/>
    <stop offset="1" stop-color="#564398"/>
  </linearGradient>
  <path fill="url(#d)" d="M409.88 80.01v140.58h38.65v-77.73h32.04v-38.65h-32.04v-24.2c0-18.86 15.34-34.2 34.2-34.2h19.62V7.16h-19.62c-40.17 0-72.85 32.68-72.85 72.85z"/>
  <linearGradient id="e" x1="409.876" x2="992" y1="114" y2="114" gradientUnits="userSpaceOnUse">
    <stop offset="0" stop-color="#2d2558"/>
    <stop offset="1" stop-color="#564398"/>
  </linearGradient>
  <path fill="url(#e)" d="M576.78 171.45V8.32h-38.65v163.13c0 27.22 22.15 49.37 49.37 49.37h21.35v-38.65H587.5c-5.91 0-10.72-4.81-10.72-10.72z"/>
  <linearGradient id="f" x1="409.876" x2="992" y1="114" y2="114" gradientUnits="userSpaceOnUse">
    <stop offset="0" stop-color="#2d2558"/>
    <stop offset="1" stop-color="#564398"/>
  </linearGradient>
  <path fill="url(#f)" d="M705.98 51.14c-46.75 0-84.78 38.03-84.78 84.78s38.03 84.78 84.78 84.78 84.78-38.03 84.78-84.78c0-46.74-38.03-84.78-84.78-84.78zm0 135.69c-28.07 0-50.91-22.84-50.91-50.91 0-28.07 22.84-50.91 50.91-50.91s50.91 22.84 50.91 50.91c0 28.07-22.84 50.91-50.91 50.91z"/>
  <linearGradient id="g" x1="409.876" x2="992" y1="114" y2="114" gradientUnits="userSpaceOnUse">
    <stop offset="0" stop-color="#2d2558"/>
    <stop offset="1" stop-color="#564398"/>
  </linearGradient>
  <path fill="url(#g)" d="M958.13 85.58v91.57l-32.94-36.2a27.848 27.848 0 0 0-20.56-9.09c-7.81 0-15.3 3.31-20.56 9.09l-33.11 36.37V85.58h-33.87v107.44c0 11.57 6.97 21.75 17.77 25.92a27.99 27.99 0 0 0 10.11 1.9c7.65 0 15.08-3.18 20.48-9.12l39.18-43.04 39.02 42.88c7.79 8.56 19.8 11.39 30.59 7.22 10.79-4.18 17.77-14.35 17.77-25.93V85.58h-33.88z"/>
</svg>
