<svg xmlns="http://www.w3.org/2000/svg" viewBox="32 8.32 331.69 212.5">
  <linearGradient id="a" x1="32" x2="179.954" y1="114.572" y2="114.572" gradientUnits="userSpaceOnUse">
    <stop offset="0" stop-color="#2d2558"/>
    <stop offset="1" stop-color="#564398"/>
  </linearGradient>
  <path fill="url(#a)" d="M151.65 220.82h-42.23c-42.53 0-77.26-34.6-77.42-77.13-.08-20.54 7.96-39.96 22.61-54.67 14.8-14.85 34.42-23.04 55.25-23.04h31.44V8.32h38.65v184.2c0 15.61-12.69 28.3-28.3 28.3zm-41.78-116.18c-10.48 0-20.38 4.14-27.87 11.66-7.35 7.38-11.38 17.06-11.34 27.25.08 21.3 17.47 38.62 38.77 38.62h31.89v-77.53h-31.45z"/>
  <linearGradient id="b" x1="213.083" x2="288.387" y1="143.406" y2="143.406" gradientUnits="userSpaceOnUse">
    <stop offset="0" stop-color="#2d2558"/>
    <stop offset="1" stop-color="#564398"/>
  </linearGradient>
  <path fill="url(#b)" d="M288.39 194.62a77.145 77.145 0 0 1-27.91 20.11c-9.56 4.04-19.7 6.09-30.14 6.09h-17.25v-38.65h17.25c20.74 0 37.72-16.37 38.72-36.86.24 9.77 2.27 19.26 6.07 28.23a76.484 76.484 0 0 0 13.26 21.08m0-102.43a77.145 77.145 0 0 0-27.91-20.11c-9.56-4.04-19.7-6.09-30.14-6.09h-17.25v38.65h17.25c20.74 0 37.72 16.37 38.72 36.86.24-9.77 2.27-19.26 6.07-28.23a76.484 76.484 0 0 1 13.26-21.08"/>
  <path fill="#2ea7dd" d="M307.68 143.41c0 .63.02 1.26.05 1.89a76.758 76.758 0 0 1-6.07 28.25 77.138 77.138 0 0 1-13.27 21.08c-5.54-6.27-10-13.34-13.27-21.08a77.06 77.06 0 0 1-6.07-28.23c.03-.63.05-1.27.05-1.91s-.02-1.28-.05-1.91c.24-9.77 2.27-19.26 6.07-28.23a77.138 77.138 0 0 1 13.27-21.08c5.54 6.27 10 13.34 13.27 21.08 3.8 8.98 5.84 18.47 6.07 28.25-.04.62-.05 1.25-.05 1.89"/>
  <linearGradient id="c" x1="288.387" x2="363.692" y1="143.406" y2="143.406" gradientUnits="userSpaceOnUse">
    <stop offset="0" stop-color="#297cc7"/>
    <stop offset="1" stop-color="#53aed1"/>
  </linearGradient>
  <path fill="url(#c)" d="M363.69 65.99v38.65h-17.25c-20.74 0-37.73 16.37-38.72 36.88a76.801 76.801 0 0 0-6.07-28.25 77.138 77.138 0 0 0-13.27-21.08c1.07-1.21 2.17-2.38 3.32-3.53 7.1-7.1 15.38-12.68 24.6-16.58 9.56-4.04 19.7-6.09 30.14-6.09h17.25zm-17.25 116.18c-20.74 0-37.73-16.37-38.72-36.88a76.758 76.758 0 0 1-6.07 28.25 77.138 77.138 0 0 1-13.27 21.08c1.07 1.21 2.17 2.38 3.32 3.53 7.1 7.1 15.38 12.68 24.6 16.58 9.56 4.04 19.7 6.09 30.14 6.09h17.25v-38.65h-17.25z"/>
</svg>
