<svg width="815" height="873" viewBox="0 0 815 873" fill="none" xmlns="http://www.w3.org/2000/svg">
<rect width="303.097" height="303.097" transform="matrix(0.866025 0.5 -0.866025 0.5 407.504 356.161)" fill="url(#paint0_linear_0_1)"/>
<rect width="303.097" height="303.097" transform="matrix(0.866025 0.5 -0.866025 0.5 407.504 356.161)" fill="white" fill-opacity="0.35"/>
<path d="M145.008 507.71L407.498 659.258V729.051L145.008 577.502V507.71Z" fill="url(#paint1_linear_0_1)"/>
<path d="M145.008 507.71L407.498 659.258V729.051L145.008 577.502V507.71Z" fill="white" fill-opacity="0.35"/>
<path d="M407.504 659.256L669.994 507.708V577.502L407.504 729.05V659.256Z" fill="url(#paint2_linear_0_1)"/>
<path d="M407.504 659.256L669.994 507.708V577.502L407.504 729.05V659.256Z" fill="white" fill-opacity="0.35"/>
<rect width="303.097" height="303.097" transform="matrix(0.866025 0.5 -0.866025 0.5 407.504 298.562)" fill="url(#paint3_linear_0_1)"/>
<path d="M145.008 450.11L407.498 601.659V654.4L145.008 502.851V450.11Z" fill="url(#paint4_linear_0_1)"/>
<path d="M407.504 601.658L669.994 450.109V502.852L407.504 654.399V601.658Z" fill="url(#paint5_linear_0_1)"/>
<rect width="277.054" height="60.2815" transform="matrix(0.866025 0.5 -0.866025 0.5 416.629 248.91)" fill="url(#paint6_linear_0_1)"/>
<rect width="277.054" height="60.2815" transform="matrix(0.866025 0.5 -0.866025 0.5 416.629 248.91)" fill="#808080" fill-opacity="0.35"/>
<rect width="276.365" height="60.2815" transform="matrix(0.866025 0.5 0 1 365.018 279.266)" fill="url(#paint7_linear_0_1)"/>
<rect width="276.365" height="60.2815" transform="matrix(0.866025 0.5 0 1 365.018 279.266)" fill="white" fill-opacity="0.35"/>
<rect width="60.2815" height="60.2815" transform="matrix(0.866025 -0.5 0 1 604.355 417.448)" fill="url(#paint8_linear_0_1)"/>
<rect width="60.2815" height="60.2815" transform="matrix(0.866025 -0.5 0 1 604.355 417.448)" fill="white" fill-opacity="0.35"/>
<rect width="274.071" height="60.2815" transform="matrix(0.866025 0.5 -0.866025 0.5 355.484 286.815)" fill="url(#paint9_linear_0_1)"/>
<rect width="274.071" height="60.2815" transform="matrix(0.866025 0.5 -0.866025 0.5 355.484 286.815)" fill="#808080" fill-opacity="0.35"/>
<rect width="274.029" height="60.2815" transform="matrix(0.866025 0.5 0 1 303.312 316.849)" fill="url(#paint10_linear_0_1)"/>
<rect width="274.029" height="60.2815" transform="matrix(0.866025 0.5 0 1 303.312 316.849)" fill="white" fill-opacity="0.35"/>
<rect width="60.2815" height="60.2815" transform="matrix(0.866025 -0.5 0 1 540.629 453.863)" fill="url(#paint11_linear_0_1)"/>
<rect width="60.2815" height="60.2815" transform="matrix(0.866025 -0.5 0 1 540.629 453.863)" fill="white" fill-opacity="0.35"/>
<rect width="271.935" height="60.2815" transform="matrix(0.866025 0.5 -0.866025 0.5 292.594 325.816)" fill="url(#paint12_linear_0_1)"/>
<rect width="271.935" height="60.2815" transform="matrix(0.866025 0.5 -0.866025 0.5 292.594 325.816)" fill="#808080" fill-opacity="0.35"/>
<rect width="269.941" height="60.2815" transform="matrix(0.866025 0.5 0 1 242.115 356.826)" fill="url(#paint13_linear_0_1)"/>
<rect width="269.941" height="60.2815" transform="matrix(0.866025 0.5 0 1 242.115 356.826)" fill="white" fill-opacity="0.35"/>
<rect width="60.2815" height="60.2815" transform="matrix(0.866025 -0.5 0 1 475.891 491.795)" fill="url(#paint14_linear_0_1)"/>
<rect width="60.2815" height="60.2815" transform="matrix(0.866025 -0.5 0 1 475.891 491.795)" fill="white" fill-opacity="0.35"/>
<rect width="283.749" height="60.2815" transform="matrix(0.866025 0.5 -0.866025 0.5 214.09 359.36)" fill="url(#paint15_linear_0_1)"/>
<rect width="283.749" height="60.2815" transform="matrix(0.866025 0.5 -0.866025 0.5 214.09 359.36)" fill="#808080" fill-opacity="0.35"/>
<rect width="284.767" height="60.2815" transform="matrix(0.866025 0.5 0 1 161 388.861)" fill="url(#paint16_linear_0_1)"/>
<rect width="284.767" height="60.2815" transform="matrix(0.866025 0.5 0 1 161 388.861)" fill="white" fill-opacity="0.35"/>
<rect width="60.2815" height="60.2815" transform="matrix(0.866025 -0.5 0 1 407.613 531.245)" fill="url(#paint17_linear_0_1)"/>
<rect width="60.2815" height="60.2815" transform="matrix(0.866025 -0.5 0 1 407.613 531.245)" fill="white" fill-opacity="0.35"/>
<g filter="url(#filter0_d_0_1)">
<path d="M433.357 676.753L432.014 677.528C431.796 677.271 431.554 677.074 431.288 676.937C431.021 676.8 430.742 676.714 430.45 676.68C430.159 676.645 429.864 676.662 429.567 676.731C429.273 676.797 428.985 676.912 428.703 677.074C428.195 677.367 427.814 677.758 427.56 678.245C427.308 678.731 427.209 679.288 427.261 679.916C427.317 680.542 427.55 681.211 427.961 681.923C428.375 682.641 428.84 683.18 429.354 683.541C429.872 683.901 430.405 684.091 430.952 684.111C431.5 684.132 432.025 683.997 432.527 683.707C432.806 683.546 433.048 683.357 433.255 683.138C433.463 682.914 433.625 682.669 433.743 682.402C433.861 682.136 433.928 681.854 433.944 681.557C433.962 681.256 433.916 680.949 433.808 680.637L435.154 679.865C435.333 680.34 435.424 680.82 435.428 681.303C435.433 681.783 435.351 682.247 435.182 682.697C435.014 683.142 434.766 683.555 434.439 683.935C434.111 684.316 433.705 684.646 433.22 684.926C432.456 685.367 431.671 685.579 430.866 685.562C430.058 685.542 429.287 685.293 428.551 684.814C427.818 684.334 427.181 683.625 426.639 682.686C426.096 681.745 425.801 680.837 425.756 679.964C425.71 679.088 425.88 678.296 426.269 677.59C426.655 676.881 427.229 676.307 427.989 675.867C428.457 675.597 428.933 675.413 429.415 675.314C429.899 675.211 430.378 675.195 430.851 675.266C431.323 675.334 431.772 675.492 432.198 675.74C432.623 675.984 433.009 676.322 433.357 676.753ZM441.144 680.368C440.524 680.726 439.901 680.897 439.275 680.879C438.648 680.862 438.06 680.672 437.51 680.308C436.959 679.945 436.487 679.421 436.092 678.738C435.696 678.052 435.478 677.379 435.436 676.717C435.395 676.056 435.524 675.45 435.822 674.899C436.12 674.348 436.579 673.894 437.199 673.536C437.819 673.178 438.442 673.007 439.068 673.025C439.694 673.042 440.283 673.234 440.836 673.6C441.388 673.966 441.862 674.493 442.258 675.179C442.652 675.862 442.869 676.533 442.909 677.191C442.948 677.849 442.819 678.454 442.521 679.005C442.223 679.556 441.764 680.01 441.144 680.368ZM440.524 679.285C440.926 679.053 441.198 678.755 441.339 678.39C441.481 678.025 441.513 677.63 441.435 677.204C441.36 676.776 441.2 676.35 440.955 675.925C440.711 675.503 440.423 675.153 440.09 674.874C439.758 674.591 439.398 674.418 439.01 674.356C438.622 674.293 438.226 674.377 437.825 674.609C437.42 674.843 437.146 675.145 437.004 675.514C436.864 675.882 436.832 676.281 436.908 676.711C436.986 677.137 437.146 677.561 437.39 677.983C437.635 678.408 437.923 678.761 438.253 679.041C438.586 679.319 438.946 679.488 439.333 679.548C439.722 679.607 440.119 679.519 440.524 679.285ZM445.586 677.626L441.768 671.012L443.004 670.299L443.625 671.375L443.707 671.328C443.635 670.884 443.696 670.47 443.891 670.085C444.085 669.698 444.399 669.378 444.836 669.126C445.278 668.871 445.708 668.761 446.126 668.795C446.546 668.828 446.933 668.983 447.285 669.262L447.354 669.222C447.308 668.778 447.397 668.352 447.62 667.944C447.842 667.532 448.191 667.189 448.668 666.914C449.268 666.568 449.866 666.473 450.462 666.63C451.06 666.786 451.579 667.243 452.016 668L454.576 672.435L453.289 673.178L450.798 668.864C450.54 668.417 450.231 668.163 449.871 668.103C449.511 668.042 449.161 668.11 448.823 668.306C448.403 668.548 448.152 668.865 448.069 669.258C447.984 669.647 448.057 670.043 448.289 670.445L450.723 674.66L449.44 675.401L446.902 671.005C446.695 670.646 446.416 670.422 446.066 670.333C445.717 670.244 445.362 670.304 445.004 670.511C444.76 670.652 444.571 670.846 444.439 671.095C444.309 671.339 444.245 671.61 444.25 671.91C444.258 672.208 444.347 672.506 444.52 672.805L446.874 676.882L445.586 677.626ZM457.734 673.919L452.484 664.826L453.741 664.1L454.36 665.172L454.467 665.11C454.463 664.929 454.478 664.707 454.514 664.445C454.551 664.183 454.655 663.913 454.827 663.634C454.997 663.352 455.287 663.092 455.698 662.855C456.231 662.547 456.786 662.407 457.361 662.435C457.935 662.463 458.489 662.662 459.02 663.032C459.555 663.401 460.028 663.943 460.441 664.658C460.854 665.372 461.088 666.054 461.145 666.702C461.2 667.348 461.099 667.929 460.842 668.445C460.583 668.958 460.187 669.368 459.653 669.676C459.251 669.908 458.883 670.031 458.55 670.043C458.22 670.054 457.93 670.011 457.683 669.913C457.435 669.815 457.231 669.718 457.073 669.622L456.995 669.667L459.021 673.176L457.734 673.919ZM455.654 667.404C455.923 667.869 456.226 668.238 456.563 668.51C456.9 668.782 457.253 668.944 457.623 668.994C457.991 669.042 458.36 668.959 458.731 668.745C459.115 668.523 459.378 668.236 459.519 667.883C459.658 667.527 459.691 667.134 459.619 666.705C459.55 666.274 459.388 665.838 459.133 665.395C458.881 664.959 458.589 664.605 458.256 664.334C457.927 664.062 457.573 663.9 457.196 663.85C456.822 663.798 456.441 663.884 456.053 664.108C455.68 664.323 455.42 664.602 455.273 664.943C455.128 665.283 455.089 665.663 455.156 666.084C455.223 666.505 455.389 666.945 455.654 667.404ZM466.391 661.957L464.156 658.087L465.448 657.341L469.266 663.954L468 664.685L467.339 663.54L467.27 663.58C467.322 664.02 467.247 664.456 467.047 664.885C466.849 665.31 466.501 665.665 466.005 665.952C465.58 666.197 465.15 666.321 464.715 666.323C464.281 666.321 463.864 666.189 463.464 665.926C463.066 665.662 462.71 665.257 462.395 664.712L459.967 660.505L461.254 659.762L463.593 663.814C463.853 664.264 464.185 664.551 464.589 664.674C464.993 664.797 465.394 664.743 465.793 664.512C466.035 664.373 466.239 664.175 466.408 663.916C466.58 663.657 466.674 663.359 466.691 663.024C466.711 662.687 466.611 662.332 466.391 661.957ZM470.264 654.56L470.861 655.593L467.249 657.679L466.652 656.646L470.264 654.56ZM466.706 654.502L467.993 653.759L471.605 660.014C471.749 660.264 471.895 660.431 472.043 660.514C472.189 660.594 472.334 660.623 472.478 660.601C472.623 660.575 472.766 660.521 472.907 660.44C473.01 660.38 473.097 660.321 473.166 660.262C473.235 660.203 473.289 660.156 473.327 660.123L474.173 661.052C474.115 661.124 474.026 661.214 473.904 661.322C473.785 661.433 473.623 661.55 473.418 661.672C473.082 661.873 472.732 661.995 472.366 662.038C472 662.081 471.651 662.022 471.317 661.863C470.984 661.703 470.702 661.424 470.472 661.025L466.706 654.502ZM478.363 658.88C477.711 659.256 477.07 659.441 476.438 659.434C475.808 659.423 475.219 659.237 474.67 658.877C474.122 658.512 473.65 657.986 473.254 657.3C472.863 656.623 472.645 655.953 472.599 655.29C472.556 654.626 472.679 654.017 472.968 653.464C473.26 652.909 473.713 652.454 474.328 652.099C474.701 651.884 475.098 651.737 475.519 651.658C475.941 651.579 476.367 651.592 476.798 651.695C477.229 651.798 477.646 652.014 478.051 652.344C478.453 652.67 478.828 653.133 479.174 653.733L479.438 654.189L474.181 657.224L473.624 656.26L477.619 653.953C477.424 653.614 477.182 653.354 476.893 653.173C476.603 652.988 476.289 652.892 475.952 652.884C475.617 652.874 475.283 652.966 474.95 653.158C474.588 653.367 474.324 653.638 474.157 653.972C473.991 654.301 473.917 654.65 473.935 655.018C473.954 655.383 474.058 655.73 474.249 656.06L474.684 656.813C474.939 657.255 475.234 657.587 475.568 657.807C475.905 658.026 476.261 658.136 476.637 658.137C477.011 658.136 477.386 658.026 477.762 657.809C478.006 657.668 478.208 657.505 478.37 657.32C478.529 657.133 478.641 656.926 478.707 656.701C478.772 656.476 478.783 656.238 478.742 655.986L480.087 655.502C480.196 655.917 480.203 656.333 480.106 656.748C480.01 657.16 479.816 657.549 479.523 657.917C479.232 658.281 478.845 658.602 478.363 658.88ZM483.975 649.75L484.619 650.865L480.709 653.122L480.065 652.007L483.975 649.75ZM490.77 647.882L488.535 644.012L489.827 643.266L493.645 649.879L492.379 650.61L491.718 649.465L491.649 649.504C491.701 649.945 491.626 650.38 491.426 650.81C491.228 651.234 490.88 651.59 490.383 651.877C489.959 652.122 489.529 652.246 489.094 652.248C488.66 652.246 488.243 652.114 487.843 651.851C487.445 651.587 487.089 651.182 486.774 650.637L484.346 646.43L485.633 645.687L487.972 649.738C488.232 650.189 488.564 650.476 488.968 650.599C489.372 650.721 489.773 650.668 490.172 650.437C490.413 650.298 490.618 650.099 490.787 649.841C490.958 649.581 491.053 649.284 491.07 648.949C491.09 648.612 490.99 648.257 490.77 647.882ZM494.395 644.21L496.662 648.137L495.374 648.88L491.556 642.267L492.792 641.554L493.413 642.63L493.495 642.583C493.445 642.145 493.521 641.726 493.723 641.326C493.927 640.925 494.278 640.581 494.774 640.294C495.225 640.034 495.674 639.901 496.123 639.895C496.569 639.886 496.992 640.013 497.393 640.275C497.793 640.538 498.151 640.942 498.466 641.487L500.894 645.694L499.607 646.437L497.268 642.385C496.991 641.906 496.65 641.604 496.244 641.478C495.837 641.349 495.415 641.411 494.979 641.663C494.681 641.835 494.452 642.053 494.294 642.317C494.139 642.578 494.067 642.873 494.076 643.201C494.086 643.524 494.193 643.86 494.395 644.21ZM502.621 644.697L498.802 638.084L500.09 637.34L503.908 643.954L502.621 644.697ZM498.863 636.688C498.64 636.817 498.404 636.853 498.157 636.797C497.912 636.736 497.728 636.601 497.607 636.391C497.485 636.179 497.459 635.952 497.531 635.712C497.604 635.467 497.752 635.28 497.976 635.151C498.2 635.021 498.435 634.987 498.68 635.048C498.927 635.105 499.112 635.239 499.235 635.452C499.356 635.661 499.38 635.888 499.307 636.133C499.235 636.374 499.087 636.558 498.863 636.688ZM504.909 634.558L505.505 635.591L501.893 637.677L501.296 636.644L504.909 634.558ZM501.35 634.5L502.638 633.757L506.25 640.013C506.394 640.262 506.54 640.429 506.687 640.512C506.833 640.592 506.978 640.621 507.122 640.599C507.268 640.573 507.411 640.519 507.551 640.438C507.655 640.378 507.741 640.319 507.81 640.26C507.879 640.201 507.933 640.154 507.971 640.121L508.818 641.05C508.76 641.122 508.67 641.212 508.549 641.32C508.429 641.431 508.267 641.548 508.062 641.67C507.727 641.871 507.376 641.993 507.01 642.036C506.645 642.079 506.295 642.02 505.962 641.861C505.629 641.701 505.347 641.422 505.116 641.023L501.35 634.5ZM514.398 632.019C513.774 630.94 513.343 629.865 513.104 628.793C512.864 627.722 512.796 626.646 512.899 625.565L514.078 624.884C514.03 625.291 514.033 625.754 514.088 626.273C514.143 626.792 514.244 627.339 514.392 627.912C514.537 628.482 514.724 629.054 514.951 629.627C515.177 630.197 515.437 630.737 515.732 631.248C516.127 631.931 516.594 632.584 517.133 633.207C517.672 633.829 518.23 634.374 518.806 634.841C519.382 635.309 519.92 635.651 520.42 635.867L519.24 636.548C518.252 636.097 517.354 635.5 516.546 634.757C515.739 634.014 515.022 633.101 514.398 632.019ZM517.493 624.353L522.584 633.171L521.254 633.939L516.163 625.121L517.493 624.353ZM523.439 627.442L525.706 631.369L524.418 632.112L520.6 625.499L521.836 624.785L522.457 625.862L522.539 625.814C522.489 625.376 522.565 624.957 522.767 624.558C522.971 624.156 523.322 623.812 523.818 623.526C524.269 623.266 524.718 623.132 525.167 623.126C525.613 623.117 526.036 623.244 526.437 623.507C526.837 623.769 527.195 624.173 527.51 624.719L529.938 628.925L528.651 629.668L526.312 625.617C526.035 625.137 525.694 624.835 525.288 624.709C524.881 624.581 524.459 624.643 524.023 624.894C523.725 625.067 523.496 625.285 523.338 625.548C523.183 625.81 523.111 626.104 523.12 626.432C523.13 626.755 523.237 627.092 523.439 627.442ZM530.994 619.498L531.59 620.531L527.853 622.689L527.257 621.656L530.994 619.498ZM532.1 627.677L527.839 620.298C527.6 619.884 527.493 619.489 527.516 619.112C527.538 618.732 527.659 618.388 527.88 618.081C528.099 617.771 528.383 617.515 528.733 617.313C528.992 617.163 529.225 617.057 529.434 616.994C529.641 616.928 529.798 616.887 529.907 616.87L530.207 618.086C530.137 618.104 530.048 618.128 529.94 618.16C529.831 618.189 529.708 618.242 529.573 618.32C529.26 618.501 529.081 618.708 529.036 618.94C528.993 619.172 529.057 619.434 529.226 619.726L533.387 626.934L532.1 627.677ZM536.14 625.344L532.322 618.731L533.566 618.013L534.173 619.063L534.242 619.023C534.157 618.598 534.208 618.195 534.394 617.816C534.582 617.432 534.87 617.128 535.257 616.904C535.338 616.858 535.434 616.806 535.546 616.749C535.662 616.69 535.753 616.647 535.821 616.619L536.532 617.85C536.472 617.866 536.371 617.903 536.229 617.962C536.086 618.018 535.948 618.084 535.816 618.16C535.512 618.336 535.278 618.557 535.114 618.824C534.952 619.086 534.867 619.37 534.86 619.677C534.852 619.98 534.93 620.275 535.096 620.562L537.428 624.601L536.14 625.344ZM542.743 621.727C542.324 621.969 541.901 622.11 541.472 622.151C541.043 622.189 540.642 622.115 540.272 621.931C539.905 621.745 539.596 621.436 539.345 621.002C539.13 620.629 539.024 620.281 539.029 619.957C539.033 619.633 539.117 619.33 539.279 619.048C539.442 618.767 539.654 618.503 539.913 618.257C540.173 618.012 540.449 617.78 540.74 617.562C541.11 617.287 541.41 617.064 541.64 616.893C541.869 616.719 542.019 616.565 542.091 616.432C542.164 616.298 542.155 616.154 542.065 615.999L542.048 615.969C541.831 615.593 541.557 615.363 541.225 615.279C540.896 615.193 540.523 615.27 540.107 615.511C539.674 615.761 539.388 616.054 539.249 616.391C539.112 616.723 539.063 617.032 539.102 617.319L537.733 617.742C537.645 617.258 537.667 616.812 537.8 616.406C537.934 615.996 538.15 615.63 538.447 615.31C538.742 614.986 539.089 614.709 539.488 614.479C539.752 614.326 540.051 614.196 540.383 614.089C540.716 613.977 541.059 613.928 541.412 613.942C541.768 613.955 542.116 614.066 542.459 614.274C542.799 614.479 543.108 614.823 543.387 615.305L545.922 619.697L544.665 620.422L544.143 619.518L544.092 619.548C544.104 619.763 544.074 619.998 544 620.255C543.927 620.512 543.79 620.769 543.59 621.026C543.39 621.283 543.108 621.517 542.743 621.727ZM542.427 620.532C542.783 620.327 543.046 620.081 543.218 619.794C543.392 619.506 543.48 619.211 543.481 618.908C543.483 618.6 543.409 618.316 543.258 618.055L542.766 617.202C542.746 617.274 542.682 617.369 542.573 617.485C542.466 617.597 542.337 617.716 542.187 617.84C542.036 617.962 541.887 618.08 541.743 618.194C541.597 618.306 541.474 618.399 541.377 618.475C541.145 618.651 540.947 618.835 540.784 619.029C540.623 619.222 540.522 619.424 540.48 619.636C540.439 619.843 540.484 620.062 540.617 620.291C540.801 620.61 541.058 620.783 541.388 620.811C541.716 620.836 542.062 620.743 542.427 620.532ZM549.707 610.847L548.659 611.727C548.524 611.606 548.365 611.509 548.181 611.435C547.999 611.36 547.795 611.33 547.567 611.347C547.34 611.364 547.092 611.449 546.825 611.603C546.461 611.814 546.204 612.071 546.054 612.376C545.903 612.677 545.901 612.956 546.049 613.211C546.176 613.432 546.361 613.563 546.602 613.603C546.844 613.644 547.172 613.602 547.586 613.478L548.776 613.112C549.466 612.901 550.044 612.856 550.512 612.977C550.979 613.097 551.348 613.391 551.618 613.859C551.847 614.255 551.936 614.675 551.885 615.117C551.836 615.555 551.658 615.979 551.351 616.39C551.048 616.799 550.629 617.157 550.095 617.465C549.355 617.893 548.659 618.084 548.009 618.038C547.357 617.99 546.809 617.703 546.365 617.179L547.5 616.271C547.765 616.551 548.066 616.704 548.403 616.732C548.738 616.756 549.1 616.656 549.487 616.433C549.909 616.189 550.196 615.907 550.348 615.586C550.497 615.262 550.499 614.973 550.351 614.717C550.232 614.51 550.054 614.381 549.818 614.33C549.584 614.277 549.289 614.306 548.932 614.417L547.671 614.818C546.973 615.033 546.387 615.073 545.914 614.937C545.444 614.799 545.073 614.494 544.801 614.023C544.576 613.633 544.488 613.228 544.537 612.81C544.586 612.391 544.756 611.989 545.046 611.603C545.334 611.215 545.727 610.877 546.223 610.59C546.938 610.178 547.59 610.008 548.18 610.081C548.767 610.151 549.276 610.406 549.707 610.847ZM553.406 606.558L554.003 607.591L550.39 609.677L549.794 608.644L553.406 606.558ZM549.848 606.5L551.135 605.757L554.747 612.013C554.891 612.262 555.037 612.429 555.185 612.512C555.331 612.592 555.476 612.621 555.62 612.599C555.765 612.573 555.908 612.519 556.049 612.438C556.152 612.378 556.238 612.319 556.308 612.26C556.377 612.201 556.431 612.154 556.469 612.121L557.315 613.05C557.257 613.122 557.167 613.212 557.046 613.32C556.927 613.431 556.764 613.548 556.559 613.67C556.224 613.871 555.873 613.993 555.508 614.036C555.142 614.079 554.793 614.02 554.459 613.861C554.126 613.701 553.844 613.422 553.614 613.023L549.848 606.5ZM558.648 612.349L554.83 605.736L556.075 605.017L556.681 606.068L556.75 606.028C556.665 605.603 556.716 605.2 556.902 604.821C557.09 604.437 557.378 604.133 557.765 603.909C557.846 603.863 557.942 603.811 558.055 603.754C558.17 603.695 558.262 603.651 558.33 603.624L559.041 604.855C558.981 604.87 558.88 604.908 558.738 604.967C558.594 605.023 558.456 605.089 558.324 605.165C558.02 605.341 557.786 605.562 557.622 605.829C557.46 606.091 557.375 606.375 557.368 606.682C557.36 606.985 557.438 607.28 557.604 607.567L559.936 611.606L558.648 612.349ZM565.907 604.501L563.673 600.631L564.964 599.885L568.783 606.498L567.517 607.229L566.856 606.084L566.787 606.124C566.838 606.564 566.764 606.999 566.564 607.429C566.366 607.853 566.018 608.209 565.521 608.496C565.097 608.741 564.667 608.865 564.232 608.867C563.798 608.865 563.381 608.733 562.981 608.47C562.583 608.206 562.227 607.801 561.912 607.256L559.483 603.049L560.771 602.306L563.11 606.358C563.37 606.808 563.702 607.095 564.106 607.218C564.51 607.34 564.911 607.287 565.31 607.056C565.551 606.917 565.756 606.718 565.925 606.46C566.096 606.201 566.191 605.903 566.208 605.568C566.227 605.231 566.127 604.876 565.907 604.501ZM573.375 604.025C572.735 604.394 572.1 604.567 571.471 604.544C570.842 604.517 570.256 604.317 569.713 603.946C569.17 603.575 568.706 603.058 568.324 602.395C567.936 601.723 567.72 601.057 567.676 600.398C567.63 599.735 567.753 599.126 568.045 598.571C568.337 598.016 568.794 597.559 569.417 597.199C569.919 596.909 570.421 596.744 570.922 596.704C571.421 596.66 571.888 596.735 572.321 596.929C572.757 597.121 573.127 597.427 573.43 597.845L572.177 598.568C571.929 598.298 571.617 598.122 571.241 598.041C570.867 597.958 570.476 598.035 570.065 598.272C569.706 598.479 569.447 598.755 569.286 599.1C569.127 599.441 569.073 599.828 569.124 600.262C569.174 600.692 569.335 601.143 569.606 601.614C569.885 602.096 570.198 602.47 570.547 602.736C570.895 603.001 571.259 603.153 571.637 603.191C572.018 603.228 572.39 603.141 572.755 602.93C572.999 602.79 573.194 602.617 573.341 602.414C573.489 602.206 573.581 601.979 573.618 601.731C573.658 601.483 573.637 601.223 573.554 600.954L574.807 600.23C575.008 600.684 575.089 601.147 575.05 601.617C575.012 602.087 574.853 602.531 574.573 602.948C574.297 603.364 573.897 603.723 573.375 604.025ZM576.66 593.132L577.257 594.166L573.645 596.251L573.048 595.218L576.66 593.132ZM573.102 593.074L574.389 592.331L578.001 598.587C578.145 598.836 578.291 599.003 578.439 599.086C578.585 599.166 578.73 599.196 578.874 599.174C579.019 599.147 579.162 599.093 579.303 599.012C579.406 598.952 579.493 598.893 579.562 598.834C579.631 598.775 579.685 598.728 579.723 598.695L580.569 599.624C580.511 599.696 580.422 599.786 580.3 599.894C580.181 600.005 580.019 600.122 579.814 600.244C579.478 600.446 579.128 600.568 578.762 600.61C578.396 600.653 578.047 600.595 577.713 600.435C577.38 600.275 577.098 599.996 576.868 599.597L573.102 593.074ZM584.508 593.762L582.274 589.891L583.565 589.146L587.384 595.759L586.118 596.49L585.456 595.344L585.388 595.384C585.439 595.825 585.365 596.26 585.165 596.689C584.967 597.114 584.619 597.47 584.122 597.757C583.697 598.002 583.268 598.126 582.833 598.128C582.399 598.126 581.982 597.993 581.582 597.731C581.184 597.467 580.828 597.062 580.513 596.517L578.084 592.31L579.372 591.567L581.711 595.618C581.971 596.069 582.303 596.356 582.707 596.478C583.111 596.601 583.512 596.547 583.911 596.317C584.152 596.178 584.357 595.979 584.526 595.721C584.697 595.461 584.792 595.164 584.809 594.829C584.828 594.492 584.728 594.136 584.508 593.762ZM589.113 594.76L585.295 588.147L586.539 587.429L587.146 588.479L587.215 588.439C587.13 588.014 587.181 587.611 587.367 587.232C587.555 586.848 587.843 586.544 588.23 586.32C588.311 586.274 588.407 586.222 588.519 586.165C588.635 586.106 588.726 586.063 588.794 586.035L589.505 587.266C589.445 587.282 589.344 587.319 589.202 587.378C589.059 587.434 588.921 587.5 588.789 587.576C588.485 587.752 588.251 587.973 588.087 588.24C587.925 588.502 587.84 588.786 587.833 589.093C587.825 589.396 587.903 589.691 588.069 589.978L590.401 594.017L589.113 594.76ZM596.457 590.698C595.805 591.075 595.164 591.259 594.532 591.253C593.902 591.241 593.313 591.056 592.764 590.695C592.216 590.33 591.744 589.804 591.348 589.118C590.957 588.441 590.739 587.771 590.693 587.109C590.65 586.444 590.773 585.836 591.062 585.282C591.354 584.727 591.807 584.272 592.422 583.918C592.795 583.702 593.192 583.555 593.613 583.476C594.035 583.398 594.461 583.41 594.892 583.513C595.323 583.617 595.74 583.833 596.145 584.162C596.548 584.488 596.922 584.951 597.268 585.551L597.532 586.008L592.275 589.043L591.718 588.078L595.714 585.771C595.518 585.433 595.276 585.173 594.987 584.991C594.697 584.806 594.383 584.71 594.046 584.702C593.711 584.693 593.377 584.784 593.044 584.976C592.683 585.185 592.418 585.456 592.251 585.79C592.085 586.119 592.011 586.468 592.029 586.837C592.048 587.201 592.152 587.548 592.343 587.878L592.778 588.632C593.033 589.074 593.328 589.405 593.662 589.625C593.999 589.844 594.355 589.954 594.731 589.956C595.105 589.954 595.48 589.845 595.856 589.627C596.1 589.487 596.302 589.324 596.464 589.139C596.623 588.951 596.735 588.745 596.801 588.519C596.866 588.294 596.877 588.056 596.836 587.805L598.181 587.321C598.29 587.736 598.297 588.151 598.2 588.567C598.104 588.978 597.91 589.367 597.618 589.736C597.326 590.099 596.939 590.42 596.457 590.698ZM604.702 585.76L603.29 586.575L601.373 575.925L602.91 575.038L611.174 582.024L609.761 582.839L603.102 577.062L603.034 577.102L604.702 585.76ZM602.946 582.17L607.527 579.525L608.173 580.645L603.592 583.29L602.946 582.17ZM616.521 582.427C615.996 582.73 615.504 582.922 615.046 583.003C614.59 583.082 614.178 583.077 613.809 582.988C613.439 582.899 613.118 582.753 612.845 582.551L613.688 581.456C613.838 581.538 614.019 581.612 614.229 581.678C614.444 581.745 614.692 581.764 614.974 581.735C615.259 581.705 615.579 581.587 615.935 581.381C616.423 581.1 616.758 580.748 616.939 580.326C617.121 579.906 617.064 579.438 616.765 578.922L616.015 577.621L615.933 577.669C615.936 577.854 615.915 578.075 615.868 578.332C615.824 578.587 615.712 578.851 615.532 579.123C615.353 579.395 615.06 579.648 614.656 579.881C614.133 580.183 613.592 580.333 613.032 580.331C612.473 580.324 611.934 580.152 611.413 579.813C610.893 579.47 610.431 578.947 610.025 578.244C609.619 577.541 609.39 576.869 609.338 576.229C609.289 575.588 609.397 575.012 609.662 574.503C609.925 573.992 610.323 573.583 610.854 573.276C611.264 573.039 611.635 572.916 611.967 572.908C612.298 572.898 612.586 572.942 612.831 573.041C613.079 573.139 613.281 573.235 613.438 573.328L613.533 573.273L612.914 572.201L614.175 571.473L618.078 578.233C618.406 578.801 618.544 579.344 618.49 579.861C618.436 580.378 618.235 580.854 617.885 581.289C617.539 581.723 617.084 582.102 616.521 582.427ZM614.323 578.649C614.694 578.436 614.957 578.169 615.113 577.849C615.27 577.525 615.321 577.163 615.266 576.762C615.212 576.357 615.053 575.926 614.79 575.47C614.533 575.025 614.24 574.671 613.913 574.409C613.585 574.146 613.239 573.994 612.874 573.952C612.508 573.907 612.137 573.993 611.76 574.21C611.373 574.434 611.108 574.721 610.966 575.071C610.822 575.418 610.782 575.801 610.848 576.219C610.916 576.635 611.071 577.054 611.315 577.476C611.565 577.909 611.851 578.251 612.172 578.502C612.493 578.753 612.835 578.896 613.2 578.931C613.567 578.964 613.942 578.87 614.323 578.649ZM618.74 572.419L621.008 576.346L619.72 577.089L615.902 570.476L617.138 569.763L617.759 570.839L617.841 570.792C617.791 570.354 617.867 569.935 618.068 569.535C618.273 569.134 618.624 568.79 619.12 568.503C619.571 568.243 620.02 568.11 620.468 568.104C620.915 568.095 621.338 568.222 621.738 568.484C622.139 568.747 622.496 569.151 622.811 569.696L625.24 573.903L623.952 574.646L621.613 570.594C621.337 570.115 620.995 569.812 620.59 569.687C620.183 569.558 619.761 569.62 619.325 569.872C619.026 570.044 618.798 570.262 618.64 570.526C618.485 570.787 618.412 571.082 618.421 571.41C618.432 571.733 618.538 572.069 618.74 572.419ZM629.829 571.431C629.209 571.789 628.586 571.959 627.96 571.942C627.334 571.924 626.745 571.734 626.195 571.371C625.644 571.007 625.172 570.484 624.778 569.801C624.382 569.115 624.163 568.441 624.122 567.78C624.081 567.119 624.209 566.512 624.507 565.961C624.805 565.41 625.264 564.956 625.884 564.598C626.504 564.24 627.127 564.07 627.753 564.087C628.38 564.105 628.969 564.296 629.521 564.663C630.073 565.029 630.547 565.555 630.943 566.241C631.338 566.924 631.554 567.595 631.594 568.253C631.634 568.912 631.504 569.517 631.206 570.068C630.908 570.619 630.449 571.073 629.829 571.431ZM629.209 570.348C629.611 570.116 629.883 569.817 630.024 569.452C630.166 569.088 630.198 568.692 630.12 568.266C630.046 567.839 629.886 567.412 629.64 566.988C629.397 566.566 629.108 566.215 628.775 565.937C628.444 565.654 628.084 565.481 627.695 565.418C627.307 565.355 626.912 565.44 626.51 565.672C626.105 565.906 625.831 566.207 625.689 566.577C625.549 566.944 625.517 567.343 625.594 567.774C625.671 568.2 625.832 568.624 626.075 569.046C626.321 569.471 626.608 569.823 626.938 570.103C627.271 570.382 627.631 570.551 628.018 570.611C628.408 570.669 628.805 570.581 629.209 570.348ZM636.341 560.828L635.294 561.708C635.159 561.587 634.999 561.49 634.815 561.416C634.634 561.341 634.43 561.312 634.202 561.329C633.974 561.345 633.727 561.431 633.46 561.585C633.096 561.795 632.838 562.053 632.689 562.357C632.538 562.659 632.536 562.937 632.683 563.193C632.811 563.414 632.996 563.544 633.237 563.585C633.479 563.625 633.806 563.583 634.221 563.459L635.41 563.094C636.1 562.883 636.679 562.838 637.146 562.958C637.614 563.079 637.983 563.373 638.253 563.841C638.482 564.237 638.571 564.656 638.52 565.099C638.471 565.537 638.293 565.961 637.986 566.371C637.682 566.78 637.264 567.139 636.73 567.447C635.989 567.874 635.294 568.065 634.644 568.02C633.992 567.971 633.444 567.685 633 567.161L634.134 566.253C634.399 566.532 634.7 566.686 635.037 566.713C635.373 566.738 635.735 566.638 636.122 566.414C636.544 566.171 636.831 565.888 636.982 565.567C637.132 565.244 637.133 564.954 636.986 564.698C636.866 564.492 636.689 564.363 636.452 564.312C636.219 564.259 635.924 564.288 635.567 564.398L634.306 564.799C633.607 565.015 633.022 565.054 632.549 564.918C632.079 564.78 631.708 564.476 631.436 564.005C631.21 563.614 631.122 563.21 631.171 562.791C631.221 562.372 631.39 561.97 631.68 561.585C631.969 561.196 632.361 560.858 632.858 560.572C633.573 560.159 634.225 559.989 634.814 560.062C635.402 560.132 635.911 560.388 636.341 560.828ZM640.041 556.539L640.637 557.573L637.025 559.658L636.429 558.625L640.041 556.539ZM636.483 556.481L637.77 555.738L641.382 561.994C641.526 562.244 641.672 562.41 641.819 562.493C641.965 562.574 642.11 562.603 642.254 562.581C642.4 562.554 642.543 562.5 642.684 562.419C642.787 562.36 642.873 562.3 642.942 562.241C643.012 562.182 643.065 562.136 643.103 562.102L643.95 563.031C643.892 563.103 643.802 563.193 643.681 563.302C643.561 563.413 643.399 563.529 643.194 563.652C642.859 563.853 642.508 563.975 642.142 564.018C641.777 564.06 641.427 564.002 641.094 563.842C640.761 563.682 640.479 563.403 640.249 563.004L636.483 556.481ZM645.283 562.331L641.465 555.717L642.752 554.974L646.57 561.587L645.283 562.331ZM641.526 554.322C641.302 554.451 641.067 554.487 640.82 554.431C640.574 554.37 640.391 554.234 640.27 554.025C640.147 553.813 640.122 553.586 640.193 553.346C640.266 553.101 640.415 552.914 640.639 552.784C640.862 552.655 641.097 552.621 641.343 552.682C641.59 552.738 641.775 552.873 641.897 553.085C642.018 553.295 642.042 553.522 641.969 553.767C641.898 554.007 641.75 554.192 641.526 554.322ZM651.165 559.113C650.525 559.482 649.89 559.655 649.261 559.632C648.632 559.605 648.047 559.405 647.503 559.034C646.96 558.663 646.496 558.145 646.114 557.482C645.726 556.811 645.51 556.145 645.466 555.486C645.42 554.823 645.543 554.214 645.835 553.659C646.127 553.104 646.584 552.647 647.207 552.287C647.71 551.997 648.211 551.832 648.712 551.791C649.211 551.748 649.678 551.823 650.111 552.017C650.547 552.209 650.917 552.514 651.22 552.933L649.967 553.656C649.719 553.386 649.407 553.21 649.031 553.129C648.657 553.046 648.266 553.123 647.855 553.36C647.496 553.567 647.237 553.843 647.076 554.188C646.917 554.529 646.863 554.916 646.914 555.35C646.964 555.78 647.125 556.231 647.396 556.702C647.675 557.184 647.988 557.558 648.337 557.823C648.686 558.089 649.049 558.241 649.427 558.279C649.808 558.316 650.18 558.229 650.545 558.018C650.789 557.877 650.984 557.705 651.131 557.502C651.279 557.294 651.371 557.067 651.408 556.819C651.448 556.57 651.427 556.311 651.344 556.041L652.597 555.318C652.798 555.772 652.879 556.234 652.84 556.704C652.802 557.175 652.643 557.618 652.363 558.036C652.087 558.452 651.688 558.811 651.165 559.113ZM655.544 551.527C656.169 552.609 656.601 553.685 656.841 554.757C657.08 555.828 657.149 556.904 657.046 557.985L655.866 558.666C655.914 558.259 655.911 557.796 655.856 557.277C655.801 556.757 655.701 556.213 655.555 555.642C655.408 555.069 655.221 554.496 654.993 553.923C654.766 553.35 654.505 552.808 654.21 552.297C653.817 551.617 653.351 550.966 652.812 550.343C652.272 549.721 651.715 549.176 651.139 548.708C650.563 548.241 650.025 547.899 649.525 547.683L650.704 547.002C651.692 547.453 652.59 548.05 653.398 548.793C654.206 549.536 654.921 550.447 655.544 551.527Z" fill="white"/>
</g>
<g filter="url(#filter1_d_0_1)">
<path d="M480.855 596.431C479.94 596.96 478.988 597.198 478 597.145C477.014 597.084 476.065 596.737 475.154 596.101C474.245 595.459 473.436 594.524 472.729 593.299C472.022 592.074 471.621 590.908 471.526 589.801C471.437 588.692 471.618 587.698 472.069 586.821C472.521 585.944 473.201 585.242 474.112 584.717C474.815 584.31 475.449 584.102 476.014 584.091C476.58 584.072 477.071 584.15 477.486 584.323C477.906 584.494 478.251 584.659 478.52 584.819L478.653 584.742L475.41 579.125L477.617 577.851L486.344 592.967L484.189 594.211L483.171 592.447L482.986 592.554C482.993 592.872 482.96 593.258 482.888 593.713C482.821 594.165 482.637 594.632 482.338 595.113C482.038 595.594 481.544 596.034 480.855 596.431ZM480.256 594.268C480.891 593.901 481.33 593.424 481.575 592.837C481.822 592.242 481.885 591.579 481.765 590.848C481.65 590.114 481.362 589.348 480.902 588.551C480.447 587.764 479.936 587.14 479.369 586.681C478.802 586.221 478.204 585.953 477.576 585.876C476.947 585.799 476.311 585.947 475.666 586.319C475.002 586.702 474.548 587.194 474.304 587.794C474.06 588.394 473.997 589.057 474.114 589.783C474.236 590.507 474.514 591.242 474.945 591.99C475.383 592.748 475.889 593.364 476.465 593.839C477.041 594.313 477.653 594.6 478.3 594.698C478.95 594.789 479.601 594.646 480.256 594.268ZM484.691 578.806L489.741 581.775L489.717 575.904L492.131 574.51L491.868 582.22L498.706 585.83L496.292 587.224L491.292 584.461L491.192 590.168L488.771 591.566L489.026 583.861L482.27 580.203L484.691 578.806ZM499.792 570.087L500.815 571.858L494.408 575.557L493.385 573.786L499.792 570.087ZM501.687 584.109L494.384 571.458C493.974 570.749 493.79 570.072 493.83 569.425C493.867 568.774 494.075 568.185 494.453 567.658C494.829 567.127 495.316 566.687 495.917 566.341C496.36 566.085 496.76 565.903 497.117 565.795C497.472 565.682 497.743 565.611 497.929 565.582L498.444 567.667C498.324 567.697 498.171 567.739 497.986 567.794C497.798 567.843 497.588 567.935 497.357 568.068C496.821 568.378 496.513 568.732 496.436 569.131C496.363 569.528 496.471 569.977 496.761 570.479L503.894 582.834L501.687 584.109ZM502.094 563.719L510.821 578.835L508.614 580.109L499.887 564.993L502.094 563.719ZM518.698 574.593C517.635 575.206 516.567 575.498 515.493 575.469C514.42 575.439 513.411 575.112 512.468 574.489C511.524 573.866 510.714 572.969 510.038 571.798C509.359 570.622 508.984 569.467 508.914 568.334C508.843 567.2 509.063 566.161 509.574 565.217C510.085 564.272 510.872 563.493 511.935 562.879C512.998 562.266 514.066 561.974 515.14 562.003C516.213 562.033 517.223 562.362 518.169 562.99C519.116 563.618 519.929 564.52 520.608 565.696C521.284 566.867 521.656 568.017 521.723 569.146C521.791 570.274 521.57 571.311 521.059 572.256C520.548 573.2 519.761 573.979 518.698 574.593ZM517.636 572.736C518.325 572.338 518.79 571.827 519.033 571.201C519.275 570.576 519.33 569.898 519.197 569.167C519.069 568.434 518.795 567.704 518.374 566.976C517.957 566.252 517.462 565.652 516.892 565.174C516.323 564.689 515.706 564.393 515.04 564.285C514.374 564.177 513.697 564.323 513.008 564.72C512.314 565.121 511.845 565.638 511.6 566.271C511.361 566.901 511.306 567.586 511.437 568.324C511.57 569.054 511.845 569.781 512.263 570.504C512.683 571.232 513.177 571.836 513.742 572.317C514.313 572.794 514.93 573.084 515.593 573.187C516.261 573.287 516.942 573.136 517.636 572.736ZM528.427 568.671L518.545 559.26L520.826 557.943L527.854 564.986L527.965 564.922L525.387 555.31L527.668 553.993L534.668 561.003L534.778 560.939L532.2 551.376L534.48 550.06L537.697 563.319L535.446 564.618L528.417 557.762L528.247 557.86L530.67 567.375L528.427 568.671ZM548.798 556.909L540.071 541.793L549.548 536.322L550.681 538.285L543.485 542.44L546.144 547.046L552.846 543.176L553.975 545.132L547.273 549.002L549.945 553.629L557.23 549.423L558.364 551.387L548.798 556.909ZM559.465 541.776L563.351 548.507L561.144 549.781L554.599 538.444L556.717 537.221L557.783 539.066L557.923 538.985C557.837 538.235 557.967 537.517 558.313 536.831C558.663 536.143 559.264 535.554 560.116 535.062C560.888 534.616 561.659 534.388 562.427 534.377C563.192 534.362 563.918 534.579 564.604 535.029C565.29 535.48 565.903 536.172 566.443 537.107L570.607 544.318L568.4 545.592L564.39 538.647C563.915 537.825 563.331 537.307 562.635 537.091C561.937 536.871 561.215 536.977 560.467 537.408C559.955 537.704 559.564 538.077 559.293 538.529C559.027 538.978 558.902 539.483 558.918 540.044C558.936 540.598 559.118 541.175 559.465 541.776ZM580.911 544.353C580.01 544.872 579.167 545.202 578.381 545.341C577.6 545.477 576.893 545.468 576.26 545.315C575.627 545.162 575.077 544.913 574.608 544.567L576.053 542.689C576.311 542.829 576.62 542.956 576.981 543.069C577.349 543.184 577.775 543.217 578.258 543.168C578.746 543.116 579.296 542.913 579.906 542.561C580.742 542.078 581.316 541.475 581.626 540.751C581.939 540.032 581.84 539.23 581.329 538.344L580.042 536.115L579.902 536.196C579.908 536.514 579.871 536.893 579.79 537.333C579.715 537.77 579.523 538.222 579.215 538.689C578.907 539.155 578.406 539.589 577.712 539.989C576.817 540.506 575.889 540.763 574.929 540.76C573.971 540.748 573.046 540.453 572.153 539.872C571.263 539.284 570.47 538.388 569.774 537.182C569.078 535.976 568.685 534.825 568.596 533.728C568.513 532.629 568.698 531.643 569.152 530.77C569.603 529.893 570.284 529.191 571.194 528.666C571.898 528.26 572.535 528.05 573.104 528.036C573.671 528.017 574.164 528.093 574.584 528.264C575.009 528.432 575.356 528.596 575.625 528.755L575.788 528.661L574.727 526.823L576.889 525.575L583.58 537.163C584.142 538.137 584.377 539.067 584.285 539.954C584.194 540.84 583.848 541.656 583.249 542.402C582.654 543.146 581.875 543.796 580.911 544.353ZM577.143 537.878C577.777 537.511 578.229 537.054 578.496 536.506C578.766 535.95 578.853 535.329 578.758 534.642C578.666 533.947 578.394 533.209 577.942 532.427C577.502 531.664 577.001 531.058 576.439 530.608C575.877 530.158 575.284 529.897 574.659 529.825C574.03 529.748 573.394 529.896 572.749 530.268C572.085 530.651 571.631 531.143 571.387 531.743C571.14 532.339 571.072 532.994 571.184 533.711C571.301 534.424 571.568 535.142 571.986 535.866C572.415 536.609 572.904 537.195 573.454 537.626C574.005 538.056 574.592 538.301 575.217 538.36C575.846 538.416 576.488 538.255 577.143 537.878ZM586.394 535.203L579.849 523.866L582.056 522.592L588.601 533.929L586.394 535.203ZM579.953 521.473C579.57 521.695 579.166 521.757 578.743 521.661C578.322 521.556 578.007 521.324 577.8 520.965C577.59 520.601 577.546 520.213 577.669 519.801C577.794 519.381 578.048 519.06 578.432 518.838C578.816 518.617 579.218 518.558 579.64 518.663C580.063 518.76 580.38 518.99 580.59 519.354C580.797 519.713 580.839 520.103 580.714 520.523C580.591 520.935 580.337 521.252 579.953 521.473ZM589.891 524.209L593.777 530.941L591.57 532.215L585.025 520.878L587.143 519.655L588.208 521.5L588.349 521.419C588.263 520.668 588.393 519.95 588.739 519.265C589.089 518.577 589.69 517.987 590.542 517.496C591.314 517.05 592.085 516.821 592.853 516.811C593.618 516.796 594.344 517.013 595.03 517.463C595.716 517.913 596.329 518.606 596.869 519.541L601.033 526.752L598.826 528.026L594.816 521.08C594.341 520.259 593.756 519.74 593.061 519.525C592.363 519.304 591.64 519.41 590.892 519.842C590.381 520.138 589.989 520.511 589.719 520.963C589.453 521.411 589.328 521.916 589.344 522.478C589.362 523.032 589.544 523.609 589.891 524.209ZM609.011 522.451C607.894 523.096 606.794 523.412 605.711 523.401C604.631 523.382 603.62 523.063 602.679 522.445C601.741 521.819 600.932 520.918 600.253 519.742C599.582 518.581 599.208 517.433 599.13 516.297C599.056 515.158 599.267 514.115 599.763 513.166C600.263 512.214 601.04 511.435 602.093 510.827C602.732 510.457 603.413 510.205 604.136 510.07C604.858 509.935 605.589 509.956 606.328 510.133C607.066 510.311 607.782 510.681 608.475 511.245C609.166 511.805 609.808 512.599 610.402 513.627L610.853 514.409L601.841 519.613L600.887 517.959L607.736 514.005C607.401 513.424 606.986 512.978 606.491 512.667C605.994 512.35 605.456 512.185 604.877 512.172C604.303 512.155 603.731 512.312 603.16 512.641C602.54 512.999 602.087 513.464 601.8 514.036C601.516 514.601 601.389 515.199 601.419 515.831C601.452 516.455 601.631 517.05 601.958 517.616L602.704 518.908C603.141 519.666 603.646 520.234 604.219 520.612C604.796 520.987 605.407 521.175 606.051 521.177C606.693 521.175 607.336 520.987 607.98 520.615C608.398 520.373 608.746 520.094 609.022 519.777C609.295 519.455 609.488 519.101 609.6 518.715C609.711 518.329 609.731 517.921 609.66 517.49L611.966 516.66C612.154 517.372 612.165 518.084 611.999 518.797C611.835 519.501 611.502 520.169 611 520.8C610.5 521.423 609.837 521.973 609.011 522.451Z" fill="white"/>
</g>
<g filter="url(#filter2_d_0_1)">
<path d="M614.323 447.783L611.469 449.431L606.378 440.613L609.323 438.913C610.187 438.414 611.031 438.162 611.855 438.158C612.677 438.15 613.443 438.379 614.152 438.846C614.863 439.308 615.483 439.997 616.011 440.913C616.542 441.831 616.829 442.718 616.875 443.572C616.923 444.424 616.734 445.21 616.308 445.931C615.88 446.649 615.219 447.266 614.323 447.783ZM612.128 447.5L613.579 446.663C614.251 446.275 614.736 445.826 615.035 445.317C615.332 444.805 615.452 444.243 615.395 443.634C615.336 443.021 615.105 442.366 614.702 441.668C614.303 440.977 613.854 440.453 613.354 440.099C612.858 439.743 612.321 439.565 611.743 439.565C611.165 439.566 610.555 439.752 609.912 440.123L608.379 441.008L612.128 447.5ZM622.978 442.964C622.358 443.322 621.735 443.492 621.109 443.475C620.483 443.458 619.894 443.267 619.344 442.904C618.793 442.54 618.321 442.017 617.927 441.334C617.53 440.648 617.312 439.974 617.271 439.313C617.229 438.652 617.358 438.046 617.656 437.495C617.954 436.944 618.413 436.489 619.033 436.131C619.653 435.773 620.276 435.603 620.902 435.62C621.529 435.638 622.118 435.83 622.67 436.196C623.222 436.562 623.696 437.088 624.092 437.774C624.486 438.457 624.703 439.128 624.743 439.787C624.782 440.445 624.653 441.05 624.355 441.601C624.057 442.152 623.598 442.606 622.978 442.964ZM622.358 441.881C622.76 441.649 623.032 441.351 623.173 440.986C623.315 440.621 623.347 440.225 623.269 439.799C623.195 439.372 623.035 438.946 622.789 438.521C622.546 438.099 622.257 437.749 621.924 437.47C621.593 437.187 621.233 437.014 620.844 436.951C620.456 436.889 620.061 436.973 619.659 437.205C619.254 437.439 618.98 437.74 618.838 438.11C618.698 438.477 618.666 438.877 618.743 439.307C618.82 439.733 618.981 440.157 619.224 440.579C619.47 441.004 619.757 441.356 620.087 441.636C620.42 441.915 620.78 442.084 621.167 442.144C621.557 442.202 621.954 442.115 622.358 441.881ZM630.283 438.746C629.643 439.116 629.009 439.289 628.379 439.266C627.751 439.238 627.165 439.039 626.621 438.668C626.078 438.296 625.615 437.779 625.232 437.116C624.844 436.445 624.628 435.779 624.584 435.119C624.538 434.457 624.662 433.848 624.953 433.293C625.245 432.738 625.703 432.281 626.326 431.921C626.828 431.631 627.33 431.466 627.83 431.425C628.33 431.382 628.796 431.457 629.229 431.651C629.666 431.843 630.035 432.148 630.338 432.567L629.085 433.29C628.837 433.02 628.525 432.844 628.149 432.763C627.776 432.68 627.384 432.757 626.974 432.994C626.615 433.201 626.355 433.477 626.195 433.822C626.035 434.163 625.981 434.55 626.033 434.983C626.082 435.414 626.243 435.865 626.515 436.335C626.793 436.818 627.107 437.192 627.455 437.457C627.804 437.723 628.167 437.875 628.545 437.913C628.926 437.95 629.299 437.863 629.663 437.652C629.907 437.511 630.102 437.339 630.249 437.136C630.397 436.928 630.49 436.7 630.527 436.453C630.567 436.204 630.545 435.945 630.462 435.675L631.715 434.952C631.916 435.406 631.997 435.868 631.959 436.338C631.92 436.808 631.761 437.252 631.482 437.67C631.205 438.086 630.806 438.445 630.283 438.746ZM634.189 433.323L633.273 431.756L633.497 431.627L634.516 427.307L636.057 426.417L634.892 431.338L634.689 431.455L634.189 433.323ZM634.3 436.25L629.209 427.432L630.496 426.689L635.587 435.506L634.3 436.25ZM638.476 433.838L634.294 432.062L634.661 430.651L640.056 432.926L638.476 433.838ZM643.704 430.998C643.052 431.374 642.411 431.559 641.779 431.552C641.149 431.541 640.559 431.355 640.011 430.995C639.463 430.63 638.991 430.104 638.595 429.418C638.204 428.741 637.986 428.071 637.94 427.408C637.897 426.744 638.02 426.135 638.309 425.582C638.601 425.027 639.054 424.572 639.668 424.217C640.042 424.002 640.439 423.855 640.86 423.776C641.282 423.697 641.708 423.71 642.139 423.813C642.57 423.916 642.987 424.133 643.392 424.462C643.794 424.788 644.169 425.251 644.515 425.851L644.779 426.307L639.522 429.343L638.965 428.378L642.96 426.071C642.765 425.733 642.523 425.472 642.234 425.291C641.944 425.106 641.63 425.01 641.292 425.002C640.958 424.992 640.624 425.084 640.291 425.276C639.929 425.485 639.665 425.756 639.498 426.09C639.332 426.419 639.258 426.768 639.276 427.137C639.295 427.501 639.399 427.848 639.59 428.178L640.025 428.931C640.28 429.373 640.575 429.705 640.909 429.925C641.245 430.144 641.602 430.254 641.978 430.255C642.352 430.254 642.727 430.144 643.103 429.927C643.347 429.786 643.549 429.623 643.71 429.439C643.87 429.251 643.982 429.044 644.047 428.819C644.113 428.594 644.124 428.356 644.082 428.104L645.428 427.62C645.537 428.036 645.544 428.451 645.447 428.867C645.351 429.278 645.157 429.667 644.864 430.035C644.573 430.399 644.186 430.72 643.704 430.998ZM647.892 428.402L644.074 421.789L645.319 421.07L645.925 422.121L645.994 422.081C645.909 421.655 645.96 421.253 646.146 420.873C646.334 420.49 646.622 420.186 647.009 419.962C647.09 419.916 647.186 419.864 647.299 419.806C647.414 419.748 647.505 419.704 647.574 419.676L648.285 420.908C648.225 420.923 648.124 420.96 647.982 421.019C647.838 421.076 647.7 421.142 647.568 421.218C647.264 421.394 647.03 421.615 646.866 421.882C646.704 422.144 646.619 422.428 646.612 422.734C646.604 423.038 646.682 423.333 646.848 423.62L649.18 427.659L647.892 428.402Z" fill="white"/>
</g>
<g filter="url(#filter3_d_0_1)">
<path d="M488.524 510.153C488.243 509.772 487.871 509.566 487.409 509.534C486.945 509.499 486.461 509.628 485.956 509.92C485.594 510.129 485.314 510.367 485.116 510.634C484.917 510.898 484.801 511.172 484.769 511.454C484.738 511.732 484.795 511.996 484.939 512.246C485.06 512.455 485.213 512.608 485.399 512.704C485.587 512.798 485.792 512.85 486.012 512.861C486.234 512.867 486.458 512.851 486.684 512.812C486.909 512.77 487.119 512.721 487.317 512.665L488.307 512.391C488.628 512.298 488.97 512.225 489.334 512.172C489.697 512.119 490.061 512.115 490.425 512.162C490.788 512.208 491.13 512.329 491.449 512.523C491.771 512.716 492.046 513.011 492.275 513.407C492.563 513.907 492.69 514.425 492.655 514.961C492.624 515.496 492.428 516.017 492.07 516.522C491.714 517.026 491.191 517.477 490.503 517.875C489.842 518.256 489.211 518.481 488.607 518.55C488.004 518.619 487.455 518.539 486.961 518.312C486.464 518.082 486.048 517.71 485.713 517.195L487.048 516.425C487.258 516.729 487.514 516.934 487.818 517.042C488.122 517.146 488.447 517.167 488.79 517.107C489.135 517.041 489.479 516.91 489.82 516.713C490.196 516.496 490.497 516.244 490.722 515.957C490.948 515.666 491.084 515.365 491.131 515.055C491.176 514.742 491.115 514.442 490.95 514.155C490.799 513.894 490.601 513.723 490.355 513.643C490.113 513.561 489.834 513.538 489.518 513.575C489.206 513.61 488.867 513.677 488.504 513.776L487.298 514.093C486.48 514.309 485.758 514.349 485.129 514.215C484.503 514.079 484.013 513.703 483.658 513.089C483.365 512.581 483.246 512.058 483.303 511.52C483.36 510.982 483.563 510.472 483.913 509.991C484.261 509.507 484.731 509.094 485.322 508.753C485.919 508.408 486.506 508.209 487.084 508.155C487.664 508.099 488.192 508.179 488.668 508.394C489.143 508.606 489.523 508.945 489.808 509.412L488.524 510.153ZM491.365 505.425L496.455 514.243L495.168 514.986L490.077 506.168L491.365 505.425ZM500.793 508.081L498.558 504.211L499.85 503.465L503.668 510.078L502.402 510.809L501.741 509.664L501.672 509.704C501.724 510.144 501.65 510.58 501.45 511.009C501.251 511.434 500.904 511.789 500.407 512.076C499.982 512.321 499.552 512.445 499.117 512.447C498.684 512.445 498.267 512.313 497.866 512.05C497.469 511.786 497.113 511.381 496.798 510.836L494.369 506.629L495.657 505.886L497.996 509.938C498.256 510.388 498.588 510.675 498.992 510.798C499.396 510.921 499.797 510.867 500.196 510.636C500.437 510.497 500.642 510.299 500.811 510.04C500.982 509.781 501.076 509.483 501.093 509.148C501.113 508.811 501.013 508.456 500.793 508.081ZM505.398 509.08L501.58 502.466L502.824 501.748L503.431 502.798L503.5 502.759C503.415 502.333 503.465 501.931 503.652 501.551C503.84 501.167 504.128 500.863 504.515 500.64C504.595 500.593 504.692 500.541 504.804 500.484C504.919 500.425 505.011 500.382 505.079 500.354L505.79 501.585C505.73 501.601 505.629 501.638 505.487 501.697C505.344 501.753 505.206 501.82 505.074 501.896C504.769 502.071 504.536 502.293 504.372 502.559C504.209 502.822 504.125 503.106 504.118 503.412C504.109 503.715 504.188 504.011 504.354 504.298L506.685 508.336L505.398 509.08ZM510.051 506.393L506.233 499.78L507.469 499.066L508.09 500.143L508.172 500.096C508.099 499.651 508.161 499.237 508.356 498.853C508.549 498.465 508.864 498.146 509.301 497.894C509.743 497.639 510.172 497.528 510.59 497.563C511.011 497.595 511.398 497.751 511.75 498.03L511.819 497.99C511.773 497.546 511.862 497.12 512.085 496.711C512.307 496.3 512.656 495.957 513.132 495.682C513.732 495.335 514.33 495.241 514.926 495.398C515.525 495.554 516.043 496.01 516.481 496.768L519.041 501.203L517.754 501.946L515.263 497.632C515.005 497.184 514.695 496.93 514.335 496.87C513.975 496.81 513.626 496.878 513.287 497.073C512.868 497.315 512.617 497.633 512.534 498.025C512.449 498.415 512.522 498.811 512.754 499.212L515.188 503.428L513.905 504.168L511.367 499.772C511.16 499.414 510.881 499.19 510.531 499.101C510.181 499.012 509.827 499.071 509.468 499.278C509.224 499.419 509.036 499.614 508.904 499.862C508.773 500.106 508.71 500.378 508.715 500.678C508.722 500.976 508.812 501.274 508.985 501.572L511.339 505.65L510.051 506.393Z" fill="white"/>
</g>
<g filter="url(#filter4_d_0_1)">
<path d="M562.469 475.931L557.378 467.113L558.708 466.345L561.139 470.556L561.247 470.494L562.514 464.148L564.189 463.181L562.925 469.204L569.293 471.991L567.691 472.916L562.567 470.622L562.216 472.42L563.799 475.163L562.469 475.931ZM573.449 469.753C572.831 470.109 572.225 470.318 571.628 470.379C571.035 470.438 570.497 470.358 570.015 470.139C569.532 469.92 569.155 469.572 568.883 469.093C568.665 468.722 568.543 468.335 568.517 467.933C568.493 467.526 568.555 467.14 568.704 466.774C568.851 466.406 569.074 466.097 569.374 465.848L569.344 465.796C568.844 465.943 568.356 465.911 567.882 465.699C567.407 465.487 567.035 465.143 566.764 464.668C566.501 464.219 566.388 463.748 566.426 463.256C566.464 462.759 566.637 462.286 566.944 461.837C567.251 461.388 567.676 461.007 568.218 460.694C568.755 460.384 569.294 460.21 569.835 460.174C570.378 460.132 570.874 460.219 571.323 460.434C571.771 460.646 572.126 460.975 572.387 461.421C572.658 461.897 572.765 462.394 572.708 462.912C572.652 463.431 572.44 463.867 572.074 464.22L572.104 464.272C572.467 464.138 572.842 464.102 573.229 464.162C573.617 464.217 573.981 464.357 574.321 464.582C574.662 464.802 574.942 465.098 575.16 465.469C575.433 465.947 575.543 466.45 575.491 466.977C575.44 467.504 575.239 468.011 574.888 468.497C574.54 468.981 574.06 469.4 573.449 469.753ZM572.82 468.663C573.184 468.453 573.465 468.21 573.662 467.936C573.858 467.658 573.966 467.368 573.987 467.065C574.005 466.76 573.931 466.458 573.763 466.161C573.583 465.856 573.346 465.631 573.052 465.487C572.761 465.341 572.443 465.277 572.099 465.297C571.754 465.316 571.409 465.425 571.065 465.624C570.717 465.824 570.448 466.07 570.256 466.36C570.064 466.651 569.958 466.959 569.939 467.284C569.92 467.609 570.001 467.924 570.181 468.229C570.349 468.527 570.568 468.744 570.839 468.882C571.112 469.016 571.418 469.067 571.759 469.034C572.099 468.999 572.452 468.875 572.82 468.663ZM570.451 464.56C570.743 464.391 570.969 464.182 571.128 463.934C571.287 463.685 571.37 463.419 571.379 463.135C571.39 462.849 571.315 462.565 571.156 462.282C570.994 462.008 570.789 461.805 570.54 461.673C570.295 461.539 570.026 461.481 569.735 461.5C569.442 461.517 569.146 461.611 568.847 461.783C568.543 461.959 568.309 462.17 568.146 462.418C567.984 462.661 567.899 462.922 567.892 463.201C567.885 463.481 567.963 463.758 568.125 464.032C568.284 464.315 568.489 464.523 568.739 464.658C568.989 464.793 569.262 464.854 569.557 464.841C569.854 464.826 570.152 464.733 570.451 464.56ZM580.147 459.06L579.1 459.94C578.965 459.819 578.805 459.721 578.621 459.648C578.44 459.573 578.235 459.543 578.008 459.56C577.78 459.577 577.533 459.662 577.266 459.816C576.901 460.027 576.644 460.284 576.495 460.589C576.343 460.89 576.342 461.169 576.489 461.424C576.617 461.645 576.801 461.776 577.043 461.816C577.284 461.857 577.612 461.815 578.026 461.69L579.216 461.325C579.906 461.114 580.484 461.069 580.952 461.19C581.42 461.31 581.788 461.604 582.058 462.072C582.287 462.468 582.376 462.888 582.326 463.33C582.276 463.768 582.098 464.192 581.792 464.603C581.488 465.012 581.069 465.37 580.535 465.678C579.795 466.106 579.099 466.297 578.449 466.251C577.797 466.203 577.249 465.916 576.805 465.392L577.94 464.484C578.205 464.764 578.506 464.917 578.843 464.945C579.179 464.969 579.54 464.869 579.928 464.646C580.35 464.402 580.636 464.12 580.788 463.799C580.938 463.475 580.939 463.185 580.791 462.93C580.672 462.723 580.494 462.594 580.258 462.543C580.025 462.49 579.73 462.519 579.372 462.63L578.111 463.031C577.413 463.246 576.827 463.286 576.354 463.149C575.884 463.011 575.513 462.707 575.241 462.236C575.016 461.846 574.928 461.441 574.977 461.023C575.026 460.604 575.196 460.202 575.486 459.816C575.774 459.427 576.167 459.09 576.664 458.803C577.378 458.391 578.03 458.221 578.62 458.294C579.208 458.364 579.717 458.619 580.147 459.06Z" fill="white"/>
</g>
<path d="M422.5 509.333C421.027 509.333 419.833 510.527 419.833 512C419.833 513.473 421.027 514.667 422.5 514.667C423.973 514.667 425.167 513.473 425.167 512C425.167 510.527 423.973 509.333 422.5 509.333ZM422.5 478L422 478L422 512L422.5 512L423 512L423 478L422.5 478Z" fill="#5063A7"/>
<path d="M197 388.333C195.527 388.333 194.333 389.527 194.333 391C194.333 392.473 195.527 393.667 197 393.667C198.473 393.667 199.667 392.473 199.667 391C199.667 389.527 198.473 388.333 197 388.333ZM197 357L196.5 357L196.5 391L197 391L197.5 391L197.5 357L197 357Z" fill="#5063A7"/>
<path d="M490 468.333C488.527 468.333 487.333 469.527 487.333 471C487.333 472.473 488.527 473.667 490 473.667C491.473 473.667 492.667 472.473 492.667 471C492.667 469.527 491.473 468.333 490 468.333ZM490 437L489.5 437L489.5 471L490 471L490.5 471L490.5 437L490 437Z" fill="#5063A7"/>
<path d="M557 431.333C555.527 431.333 554.333 432.527 554.333 434C554.333 435.473 555.527 436.667 557 436.667C558.473 436.667 559.667 435.473 559.667 434C559.667 432.527 558.473 431.333 557 431.333ZM557 400L556.5 400L556.5 434L557 434L557.5 434L557.5 400L557 400Z" fill="#5063A7"/>
<path d="M621 396.333C619.527 396.333 618.333 397.527 618.333 399C618.333 400.473 619.527 401.667 621 401.667C622.473 401.667 623.667 400.473 623.667 399C623.667 397.527 622.473 396.333 621 396.333ZM621 365L620.5 365L620.5 399L621 399L621.5 399L621.5 365L621 365Z" fill="#5063A7"/>
<rect width="303.097" height="303.097" transform="matrix(0.866025 0.5 -0.866025 0.5 408.504 150)" fill="url(#paint18_linear_0_1)"/>
<rect width="303.097" height="303.097" transform="matrix(0.866025 0.5 -0.866025 0.5 408.504 150)" fill="white" fill-opacity="0.35"/>
<path d="M146.008 301.548L408.498 453.096V505.838L146.008 354.289V301.548Z" fill="url(#paint19_linear_0_1)"/>
<path d="M146.008 301.548L408.498 453.096V505.838L146.008 354.289V301.548Z" fill="white" fill-opacity="0.35"/>
<path d="M408.504 453.095L670.994 301.547V354.289L408.504 505.837V453.095Z" fill="url(#paint20_linear_0_1)"/>
<path d="M408.504 453.095L670.994 301.547V354.289L408.504 505.837V453.095Z" fill="white" fill-opacity="0.35"/>
<g filter="url(#filter5_d_0_1)">
<path d="M486.814 428.98C486.492 428.544 486.067 428.308 485.539 428.272C485.009 428.233 484.455 428.38 483.878 428.713C483.465 428.952 483.145 429.224 482.919 429.529C482.691 429.831 482.559 430.144 482.522 430.467C482.487 430.785 482.552 431.086 482.716 431.372C482.855 431.611 483.03 431.786 483.242 431.895C483.457 432.003 483.69 432.062 483.942 432.074C484.195 432.081 484.451 432.063 484.71 432.018C484.967 431.971 485.208 431.915 485.433 431.85L486.565 431.538C486.932 431.431 487.323 431.347 487.739 431.287C488.154 431.226 488.57 431.222 488.985 431.275C489.401 431.329 489.791 431.466 490.156 431.689C490.524 431.909 490.838 432.246 491.1 432.699C491.429 433.27 491.574 433.862 491.535 434.475C491.498 435.086 491.275 435.681 490.865 436.259C490.459 436.835 489.862 437.35 489.074 437.805C488.32 438.24 487.598 438.497 486.909 438.576C486.219 438.655 485.592 438.564 485.026 438.305C484.459 438.042 483.984 437.616 483.601 437.028L485.126 436.148C485.366 436.495 485.659 436.73 486.006 436.853C486.354 436.972 486.725 436.996 487.118 436.927C487.512 436.852 487.904 436.702 488.295 436.477C488.724 436.229 489.068 435.941 489.325 435.613C489.583 435.28 489.739 434.937 489.792 434.582C489.844 434.224 489.775 433.881 489.585 433.553C489.413 433.255 489.187 433.06 488.906 432.968C488.629 432.874 488.31 432.848 487.95 432.89C487.592 432.93 487.206 433.007 486.79 433.12L485.412 433.483C484.478 433.729 483.651 433.775 482.933 433.622C482.218 433.466 481.657 433.037 481.252 432.335C480.917 431.755 480.782 431.157 480.846 430.542C480.911 429.927 481.144 429.345 481.543 428.795C481.941 428.241 482.478 427.77 483.154 427.379C483.836 426.985 484.507 426.758 485.167 426.696C485.83 426.632 486.434 426.724 486.978 426.969C487.52 427.212 487.954 427.6 488.28 428.133L486.814 428.98ZM497.678 432.817C496.97 433.227 496.257 433.421 495.542 433.401C494.826 433.381 494.154 433.164 493.525 432.749C492.896 432.333 492.356 431.735 491.905 430.954C491.452 430.17 491.202 429.401 491.155 428.645C491.108 427.889 491.255 427.196 491.596 426.567C491.936 425.937 492.461 425.418 493.17 425.008C493.878 424.599 494.59 424.405 495.306 424.425C496.022 424.444 496.695 424.664 497.326 425.082C497.957 425.501 498.499 426.102 498.951 426.886C499.402 427.667 499.65 428.434 499.695 429.186C499.74 429.939 499.593 430.63 499.252 431.259C498.911 431.889 498.387 432.408 497.678 432.817ZM496.97 431.58C497.429 431.314 497.74 430.973 497.901 430.556C498.063 430.139 498.099 429.687 498.011 429.201C497.926 428.712 497.743 428.225 497.462 427.739C497.184 427.257 496.854 426.857 496.474 426.539C496.095 426.215 495.683 426.018 495.239 425.946C494.796 425.874 494.344 425.971 493.885 426.236C493.422 426.503 493.109 426.847 492.946 427.27C492.787 427.69 492.75 428.146 492.838 428.638C492.926 429.125 493.11 429.609 493.388 430.092C493.668 430.577 493.997 430.98 494.375 431.3C494.755 431.618 495.166 431.812 495.608 431.88C496.054 431.947 496.507 431.847 496.97 431.58ZM501.989 420.048L502.671 421.229L498.399 423.695L497.718 422.514L501.989 420.048ZM503.252 429.396L498.383 420.962C498.11 420.489 497.987 420.038 498.014 419.607C498.039 419.173 498.177 418.78 498.43 418.429C498.68 418.074 499.005 417.782 499.405 417.551C499.701 417.38 499.967 417.259 500.206 417.187C500.442 417.112 500.623 417.064 500.747 417.045L501.09 418.435C501.01 418.455 500.908 418.483 500.785 418.519C500.659 418.552 500.52 418.613 500.365 418.702C500.008 418.908 499.803 419.145 499.751 419.411C499.703 419.675 499.775 419.975 499.968 420.309L504.724 428.546L503.252 429.396ZM507.035 417.135L507.717 418.316L503.588 420.699L502.906 419.518L507.035 417.135ZM502.968 417.068L504.439 416.219L508.567 423.368C508.732 423.654 508.899 423.844 509.067 423.939C509.234 424.031 509.4 424.064 509.565 424.039C509.731 424.009 509.894 423.947 510.055 423.854C510.173 423.786 510.272 423.718 510.351 423.651C510.43 423.583 510.491 423.53 510.535 423.492L511.502 424.554C511.436 424.636 511.333 424.739 511.195 424.863C511.058 424.99 510.873 425.123 510.638 425.263C510.255 425.493 509.855 425.632 509.437 425.681C509.019 425.73 508.619 425.663 508.238 425.48C507.857 425.298 507.535 424.979 507.272 424.523L502.968 417.068ZM514.665 422.807L508.077 416.533L509.597 415.655L514.283 420.35L514.357 420.308L512.638 413.899L514.159 413.022L518.825 417.695L518.899 417.653L517.18 411.277L518.7 410.399L520.845 419.239L519.344 420.105L514.658 415.535L514.545 415.6L516.16 421.943L514.665 422.807ZM526.756 416.049C526.277 416.325 525.793 416.487 525.304 416.533C524.813 416.576 524.355 416.492 523.932 416.282C523.512 416.07 523.159 415.716 522.873 415.22C522.627 414.794 522.506 414.396 522.511 414.025C522.516 413.655 522.611 413.309 522.797 412.987C522.983 412.666 523.225 412.364 523.522 412.084C523.819 411.803 524.134 411.538 524.467 411.289C524.89 410.975 525.232 410.72 525.496 410.524C525.757 410.325 525.929 410.15 526.011 409.997C526.094 409.844 526.084 409.679 525.982 409.502L525.962 409.468C525.714 409.038 525.4 408.775 525.021 408.679C524.645 408.581 524.219 408.67 523.744 408.944C523.248 409.23 522.921 409.566 522.763 409.95C522.606 410.329 522.55 410.683 522.595 411.011L521.03 411.495C520.929 410.941 520.955 410.432 521.107 409.968C521.26 409.499 521.507 409.081 521.846 408.715C522.184 408.345 522.58 408.028 523.036 407.765C523.338 407.591 523.679 407.442 524.058 407.319C524.439 407.191 524.831 407.135 525.235 407.152C525.641 407.166 526.04 407.293 526.431 407.531C526.82 407.765 527.174 408.158 527.492 408.709L530.39 413.728L528.953 414.558L528.356 413.524L528.297 413.558C528.312 413.804 528.277 414.073 528.193 414.367C528.109 414.66 527.952 414.954 527.724 415.247C527.495 415.541 527.173 415.808 526.756 416.049ZM526.394 414.683C526.801 414.448 527.102 414.167 527.298 413.84C527.497 413.511 527.598 413.173 527.599 412.826C527.602 412.475 527.517 412.15 527.344 411.852L526.782 410.877C526.76 410.96 526.686 411.068 526.562 411.201C526.439 411.329 526.292 411.464 526.121 411.607C525.947 411.746 525.778 411.881 525.613 412.011C525.446 412.139 525.306 412.245 525.194 412.332C524.93 412.533 524.704 412.744 524.517 412.966C524.333 413.185 524.217 413.416 524.169 413.659C524.122 413.896 524.175 414.145 524.326 414.408C524.536 414.772 524.83 414.97 525.207 415.001C525.582 415.03 525.978 414.924 526.394 414.683ZM532.349 412.597L527.985 405.039L529.408 404.218L530.101 405.418L530.179 405.373C530.082 404.887 530.14 404.427 530.354 403.993C530.568 403.554 530.897 403.207 531.34 402.951C531.432 402.898 531.542 402.839 531.67 402.773C531.802 402.706 531.907 402.657 531.985 402.625L532.797 404.032C532.729 404.05 532.613 404.092 532.451 404.16C532.287 404.224 532.129 404.3 531.979 404.387C531.631 404.587 531.363 404.84 531.176 405.145C530.991 405.445 530.894 405.769 530.886 406.12C530.876 406.466 530.966 406.804 531.156 407.132L533.82 411.747L532.349 412.597ZM540.742 407.955C539.997 408.384 539.264 408.596 538.542 408.588C537.822 408.575 537.148 408.363 536.521 407.951C535.895 407.534 535.356 406.933 534.904 406.149C534.457 405.375 534.207 404.609 534.155 403.852C534.106 403.093 534.246 402.397 534.577 401.765C534.91 401.13 535.428 400.61 536.13 400.205C536.557 399.959 537.011 399.791 537.492 399.701C537.974 399.611 538.461 399.625 538.953 399.743C539.446 399.861 539.923 400.108 540.385 400.484C540.845 400.857 541.273 401.386 541.669 402.072L541.97 402.594L535.962 406.062L535.326 404.96L539.892 402.324C539.669 401.937 539.392 401.639 539.062 401.432C538.731 401.221 538.372 401.111 537.986 401.102C537.604 401.091 537.222 401.195 536.842 401.415C536.428 401.654 536.126 401.964 535.935 402.345C535.746 402.721 535.661 403.12 535.681 403.541C535.703 403.958 535.822 404.354 536.04 404.731L536.537 405.593C536.829 406.098 537.166 406.476 537.547 406.728C537.932 406.978 538.34 407.104 538.769 407.106C539.197 407.104 539.625 406.979 540.055 406.731C540.334 406.57 540.565 406.383 540.75 406.172C540.932 405.958 541.06 405.722 541.135 405.464C541.209 405.207 541.223 404.935 541.175 404.647L542.712 404.094C542.837 404.569 542.845 405.043 542.734 405.518C542.625 405.988 542.403 406.434 542.068 406.854C541.735 407.27 541.293 407.636 540.742 407.955ZM552.211 401.32C551.535 401.71 550.882 401.923 550.251 401.959C549.624 401.993 549.057 401.875 548.55 401.603C548.041 401.328 547.632 400.922 547.321 400.384C547.084 399.974 546.959 399.56 546.946 399.144C546.931 398.724 546.997 398.289 547.145 397.841C547.293 397.393 547.488 396.915 547.729 396.408L548.691 394.324C548.862 393.985 548.967 393.671 549.006 393.382C549.043 393.089 548.975 392.794 548.802 392.495C548.666 392.259 548.434 392.091 548.105 391.992C547.777 391.893 547.442 391.942 547.101 392.139C546.865 392.275 546.69 392.453 546.575 392.672C546.465 392.889 546.41 393.117 546.413 393.356C546.417 393.59 546.476 393.806 546.589 394.003C546.722 394.232 546.918 394.428 547.177 394.588C547.439 394.748 547.742 394.894 548.086 395.028C548.429 395.158 548.786 395.293 549.159 395.432L557.069 398.325L555.406 399.285L548.905 396.969C548.359 396.773 547.849 396.586 547.375 396.409C546.899 396.229 546.474 396.015 546.099 395.768C545.726 395.516 545.422 395.186 545.187 394.779C544.92 394.317 544.789 393.846 544.792 393.367C544.797 392.883 544.931 392.43 545.194 392.007C545.457 391.584 545.845 391.224 546.356 390.929C546.875 390.63 547.378 390.475 547.866 390.464C548.355 390.448 548.797 390.55 549.19 390.769C549.585 390.983 549.896 391.287 550.123 391.68C550.4 392.159 550.524 392.651 550.497 393.157C550.471 393.658 550.338 394.181 550.097 394.726L548.936 397.385C548.709 397.901 548.599 398.344 548.608 398.715C548.618 399.081 548.669 399.343 548.76 399.501C548.926 399.789 549.154 400.014 549.444 400.175C549.737 400.334 550.061 400.409 550.415 400.402C550.772 400.392 551.133 400.282 551.497 400.072C551.871 399.856 552.189 399.565 552.45 399.2C552.713 398.83 552.901 398.409 553.014 397.937C553.129 397.463 553.149 396.964 553.074 396.439C552.998 395.914 552.808 395.387 552.503 394.859L553.832 394.092C554.207 394.742 554.45 395.334 554.562 395.869C554.672 396.4 554.703 396.867 554.656 397.271C554.61 397.669 554.541 398 554.448 398.263C554.42 398.35 554.394 398.434 554.372 398.517C554.35 398.6 554.324 398.685 554.296 398.771C554.153 399.313 553.887 399.805 553.496 400.25C553.109 400.692 552.68 401.049 552.211 401.32ZM556.189 385.396L558.034 384.331L565.765 390.312L565.883 390.244L564.568 380.558L566.414 379.493L572.232 389.57L570.785 390.406L566.575 383.113L566.481 383.167L567.711 392.161L566.51 392.854L559.334 387.287L559.24 387.341L563.453 394.639L562.007 395.474L556.189 385.396ZM577.596 386.677C576.887 387.086 576.175 387.281 575.46 387.261C574.744 387.241 574.072 387.023 573.443 386.608C572.814 386.193 572.274 385.595 571.823 384.814C571.37 384.03 571.12 383.26 571.073 382.504C571.026 381.748 571.173 381.056 571.514 380.426C571.854 379.796 572.379 379.277 573.087 378.868C573.796 378.459 574.508 378.264 575.224 378.284C575.939 378.304 576.613 378.523 577.244 378.942C577.875 379.36 578.416 379.962 578.869 380.746C579.32 381.526 579.568 382.293 579.613 383.045C579.658 383.798 579.51 384.489 579.17 385.119C578.829 385.748 578.305 386.268 577.596 386.677ZM576.888 385.439C577.347 385.174 577.658 384.833 577.819 384.416C577.981 383.999 578.017 383.547 577.929 383.06C577.843 382.571 577.661 382.084 577.38 381.599C577.102 381.116 576.772 380.716 576.392 380.398C576.013 380.074 575.601 379.877 575.157 379.805C574.713 379.733 574.262 379.83 573.803 380.095C573.34 380.362 573.027 380.707 572.864 381.129C572.705 381.549 572.668 382.005 572.755 382.497C572.844 382.984 573.028 383.469 573.306 383.951C573.586 384.436 573.915 384.839 574.292 385.159C574.673 385.478 575.084 385.671 575.526 385.74C575.971 385.806 576.425 385.706 576.888 385.439ZM585.588 382.056C584.978 382.408 584.343 382.567 583.684 382.532C583.027 382.492 582.394 382.26 581.787 381.836C581.181 381.408 580.642 380.785 580.17 379.968C579.699 379.151 579.431 378.374 579.369 377.636C579.309 376.896 579.429 376.234 579.73 375.649C580.031 375.064 580.485 374.597 581.092 374.246C581.561 373.976 581.984 373.836 582.36 373.829C582.738 373.817 583.065 373.868 583.342 373.984C583.622 374.098 583.852 374.208 584.031 374.314L584.12 374.263L581.958 370.519L583.429 369.669L589.247 379.747L587.81 380.576L587.131 379.4L587.008 379.471C587.013 379.683 586.991 379.941 586.943 380.244C586.898 380.545 586.776 380.856 586.576 381.177C586.377 381.498 586.047 381.791 585.588 382.056ZM585.188 380.614C585.611 380.37 585.905 380.052 586.068 379.66C586.232 379.263 586.274 378.821 586.194 378.334C586.117 377.845 585.926 377.334 585.619 376.803C585.316 376.278 584.975 375.862 584.597 375.556C584.219 375.249 583.82 375.07 583.401 375.019C582.983 374.968 582.558 375.066 582.129 375.314C581.686 375.57 581.383 375.898 581.22 376.298C581.058 376.698 581.015 377.14 581.094 377.624C581.175 378.106 581.36 378.597 581.648 379.095C581.94 379.601 582.277 380.011 582.661 380.328C583.045 380.644 583.453 380.835 583.884 380.901C584.317 380.961 584.752 380.866 585.188 380.614ZM594.693 376.806C593.948 377.236 593.215 377.447 592.493 377.44C591.773 377.427 591.099 377.214 590.472 376.802C589.846 376.385 589.307 375.784 588.854 375C588.407 374.226 588.158 373.461 588.105 372.703C588.056 371.944 588.197 371.249 588.527 370.616C588.861 369.982 589.379 369.462 590.081 369.057C590.507 368.811 590.961 368.642 591.443 368.552C591.925 368.462 592.412 368.476 592.904 368.595C593.396 368.713 593.874 368.96 594.336 369.336C594.796 369.709 595.224 370.238 595.62 370.924L595.921 371.445L589.913 374.914L589.277 373.812L593.843 371.175C593.62 370.788 593.343 370.491 593.013 370.283C592.681 370.072 592.323 369.962 591.937 369.953C591.554 369.942 591.173 370.047 590.792 370.266C590.379 370.505 590.077 370.815 589.886 371.197C589.696 371.573 589.612 371.972 589.632 372.393C589.653 372.809 589.773 373.206 589.991 373.583L590.488 374.444C590.78 374.949 591.116 375.328 591.498 375.58C591.883 375.83 592.29 375.956 592.72 375.957C593.147 375.955 593.576 375.83 594.006 375.582C594.285 375.421 594.516 375.235 594.7 375.024C594.882 374.809 595.011 374.573 595.085 374.316C595.16 374.059 595.173 373.786 595.125 373.499L596.663 372.946C596.788 373.42 596.795 373.895 596.685 374.37C596.575 374.84 596.354 375.285 596.019 375.706C595.686 376.121 595.244 376.488 594.693 376.806ZM595.133 362.912L600.951 372.989L599.48 373.839L593.661 363.762L595.133 362.912ZM605.296 362.864L604.098 363.87C603.944 363.732 603.762 363.62 603.551 363.536C603.344 363.45 603.111 363.417 602.85 363.436C602.59 363.455 602.308 363.552 602.003 363.729C601.586 363.969 601.292 364.263 601.121 364.611C600.949 364.956 600.946 365.274 601.115 365.566C601.261 365.819 601.472 365.968 601.748 366.015C602.024 366.061 602.398 366.013 602.872 365.871L604.232 365.453C605.02 365.212 605.681 365.161 606.215 365.298C606.75 365.436 607.171 365.772 607.48 366.307C607.741 366.76 607.843 367.239 607.785 367.745C607.729 368.245 607.525 368.73 607.175 369.199C606.828 369.666 606.35 370.076 605.739 370.428C604.893 370.917 604.098 371.135 603.355 371.083C602.61 371.028 601.984 370.7 601.476 370.101L602.773 369.064C603.076 369.383 603.42 369.559 603.805 369.59C604.189 369.618 604.602 369.504 605.045 369.248C605.527 368.97 605.855 368.647 606.028 368.28C606.199 367.91 606.201 367.579 606.032 367.287C605.896 367.051 605.692 366.904 605.422 366.845C605.156 366.785 604.818 366.818 604.41 366.944L602.969 367.402C602.171 367.649 601.502 367.694 600.961 367.538C600.424 367.38 600 367.032 599.689 366.494C599.432 366.048 599.331 365.586 599.387 365.107C599.443 364.629 599.637 364.169 599.969 363.729C600.298 363.284 600.747 362.899 601.314 362.571C602.131 362.099 602.877 361.905 603.55 361.989C604.222 362.069 604.804 362.361 605.296 362.864Z" fill="white"/>
</g>
<line x1="408.5" y1="730.5" x2="408.5" y2="870.5" stroke="#CD90FF" stroke-width="5" stroke-linecap="round" stroke-dasharray="2 12"/>
<line x1="408.5" y1="2.5" x2="408.5" y2="142.5" stroke="#CD90FF" stroke-width="5" stroke-linecap="round" stroke-dasharray="2 12"/>
<line x1="672.5" y1="475.5" x2="812.5" y2="475.5" stroke="#CD90FF" stroke-width="5" stroke-linecap="round" stroke-dasharray="2 12"/>
<line x1="2.5" y1="475.5" x2="142.5" y2="475.5" stroke="#CD90FF" stroke-width="5" stroke-linecap="round" stroke-dasharray="2 12"/>
<defs>
<filter id="filter0_d_0_1" x="419.471" y="545.288" width="243.697" height="152.425" filterUnits="userSpaceOnUse" color-interpolation-filters="sRGB">
<feFlood flood-opacity="0" result="BackgroundImageFix"/>
<feColorMatrix in="SourceAlpha" type="matrix" values="0 0 0 0 0 0 0 0 0 0 0 0 0 0 0 0 0 0 127 0" result="hardAlpha"/>
<feOffset dy="4"/>
<feGaussianBlur stdDeviation="2"/>
<feComposite in2="hardAlpha" operator="out"/>
<feColorMatrix type="matrix" values="0 0 0 0 0 0 0 0 0 0 0 0 0 0 0 0 0 0 0.25 0"/>
<feBlend mode="normal" in2="BackgroundImageFix" result="effect1_dropShadow_0_1"/>
<feBlend mode="normal" in="SourceGraphic" in2="effect1_dropShadow_0_1" result="shape"/>
</filter>
<filter id="filter1_d_0_1" x="462.854" y="503.589" width="157.48" height="107.844" filterUnits="userSpaceOnUse" color-interpolation-filters="sRGB">
<feFlood flood-opacity="0" result="BackgroundImageFix"/>
<feColorMatrix in="SourceAlpha" type="matrix" values="0 0 0 0 0 0 0 0 0 0 0 0 0 0 0 0 0 0 127 0" result="hardAlpha"/>
<feOffset dy="4"/>
<feGaussianBlur stdDeviation="2"/>
<feComposite in2="hardAlpha" operator="out"/>
<feColorMatrix type="matrix" values="0 0 0 0 0 0 0 0 0 0 0 0 0 0 0 0 0 0 0.25 0"/>
<feBlend mode="normal" in2="BackgroundImageFix" result="effect1_dropShadow_0_1"/>
<feBlend mode="normal" in="SourceGraphic" in2="effect1_dropShadow_0_1" result="shape"/>
</filter>
<filter id="filter2_d_0_1" x="602.377" y="417.541" width="53.1309" height="40.0238" filterUnits="userSpaceOnUse" color-interpolation-filters="sRGB">
<feFlood flood-opacity="0" result="BackgroundImageFix"/>
<feColorMatrix in="SourceAlpha" type="matrix" values="0 0 0 0 0 0 0 0 0 0 0 0 0 0 0 0 0 0 127 0" result="hardAlpha"/>
<feOffset dy="4"/>
<feGaussianBlur stdDeviation="2"/>
<feComposite in2="hardAlpha" operator="out"/>
<feColorMatrix type="matrix" values="0 0 0 0 0 0 0 0 0 0 0 0 0 0 0 0 0 0 0.25 0"/>
<feBlend mode="normal" in2="BackgroundImageFix" result="effect1_dropShadow_0_1"/>
<feBlend mode="normal" in="SourceGraphic" in2="effect1_dropShadow_0_1" result="shape"/>
</filter>
<filter id="filter3_d_0_1" x="477.959" y="492.265" width="45.166" height="35.5143" filterUnits="userSpaceOnUse" color-interpolation-filters="sRGB">
<feFlood flood-opacity="0" result="BackgroundImageFix"/>
<feColorMatrix in="SourceAlpha" type="matrix" values="0 0 0 0 0 0 0 0 0 0 0 0 0 0 0 0 0 0 127 0" result="hardAlpha"/>
<feOffset dy="4"/>
<feGaussianBlur stdDeviation="2"/>
<feComposite in2="hardAlpha" operator="out"/>
<feColorMatrix type="matrix" values="0 0 0 0 0 0 0 0 0 0 0 0 0 0 0 0 0 0 0.25 0"/>
<feBlend mode="normal" in2="BackgroundImageFix" result="effect1_dropShadow_0_1"/>
<feBlend mode="normal" in="SourceGraphic" in2="effect1_dropShadow_0_1" result="shape"/>
</filter>
<filter id="filter4_d_0_1" x="553.309" y="455.045" width="33.9297" height="29.0192" filterUnits="userSpaceOnUse" color-interpolation-filters="sRGB">
<feFlood flood-opacity="0" result="BackgroundImageFix"/>
<feColorMatrix in="SourceAlpha" type="matrix" values="0 0 0 0 0 0 0 0 0 0 0 0 0 0 0 0 0 0 127 0" result="hardAlpha"/>
<feOffset dy="4"/>
<feGaussianBlur stdDeviation="2"/>
<feComposite in2="hardAlpha" operator="out"/>
<feColorMatrix type="matrix" values="0 0 0 0 0 0 0 0 0 0 0 0 0 0 0 0 0 0 0.25 0"/>
<feBlend mode="normal" in2="BackgroundImageFix" result="effect1_dropShadow_0_1"/>
<feBlend mode="normal" in="SourceGraphic" in2="effect1_dropShadow_0_1" result="shape"/>
</filter>
<filter id="filter5_d_0_1" x="475.117" y="357.942" width="137.721" height="90.0387" filterUnits="userSpaceOnUse" color-interpolation-filters="sRGB">
<feFlood flood-opacity="0" result="BackgroundImageFix"/>
<feColorMatrix in="SourceAlpha" type="matrix" values="0 0 0 0 0 0 0 0 0 0 0 0 0 0 0 0 0 0 127 0" result="hardAlpha"/>
<feOffset dy="4"/>
<feGaussianBlur stdDeviation="2"/>
<feComposite in2="hardAlpha" operator="out"/>
<feColorMatrix type="matrix" values="0 0 0 0 0 0 0 0 0 0 0 0 0 0 0 0 0 0 0.25 0"/>
<feBlend mode="normal" in2="BackgroundImageFix" result="effect1_dropShadow_0_1"/>
<feBlend mode="normal" in="SourceGraphic" in2="effect1_dropShadow_0_1" result="shape"/>
</filter>
<linearGradient id="paint0_linear_0_1" x1="-5.84454" y1="121.515" x2="177.241" y2="-5.21645" gradientUnits="userSpaceOnUse">
<stop stop-color="#8084FF"/>
<stop offset="1" stop-color="#6F8EFF"/>
</linearGradient>
<linearGradient id="paint1_linear_0_1" x1="145.008" y1="507.71" x2="466.262" y2="544.292" gradientUnits="userSpaceOnUse">
<stop stop-color="#93A5FC"/>
<stop offset="1" stop-color="#93AAFC"/>
</linearGradient>
<linearGradient id="paint2_linear_0_1" x1="407.504" y1="658.889" x2="645.348" y2="637.404" gradientUnits="userSpaceOnUse">
<stop stop-color="#5844D7"/>
<stop offset="1" stop-color="#6580E1"/>
</linearGradient>
<linearGradient id="paint3_linear_0_1" x1="0" y1="0" x2="352.298" y2="10.0087" gradientUnits="userSpaceOnUse">
<stop stop-color="#5E45B7"/>
<stop offset="1" stop-color="#7D61E1"/>
</linearGradient>
<linearGradient id="paint4_linear_0_1" x1="145.008" y1="450.11" x2="469.796" y2="500.114" gradientUnits="userSpaceOnUse">
<stop stop-color="#806AD0"/>
<stop offset="1" stop-color="#826DCC"/>
</linearGradient>
<linearGradient id="paint5_linear_0_1" x1="407.504" y1="601.38" x2="647.848" y2="572.157" gradientUnits="userSpaceOnUse">
<stop stop-color="#342765"/>
<stop offset="1" stop-color="#534195"/>
</linearGradient>
<linearGradient id="paint6_linear_0_1" x1="-5.34236" y1="24.1675" x2="16.9165" y2="-46.6456" gradientUnits="userSpaceOnUse">
<stop stop-color="#8084FF"/>
<stop offset="1" stop-color="#6F8EFF"/>
</linearGradient>
<linearGradient id="paint7_linear_0_1" x1="0" y1="0" x2="206.047" y2="154.226" gradientUnits="userSpaceOnUse">
<stop stop-color="#93A5FC"/>
<stop offset="1" stop-color="#93AAFC"/>
</linearGradient>
<linearGradient id="paint8_linear_0_1" x1="-1.84647e-05" y1="-0.0551867" x2="51.452" y2="-6.80514" gradientUnits="userSpaceOnUse">
<stop stop-color="#5844D7"/>
<stop offset="1" stop-color="#6580E1"/>
</linearGradient>
<linearGradient id="paint9_linear_0_1" x1="-5.28483" y1="24.1675" x2="17.1721" y2="-46.5065" gradientUnits="userSpaceOnUse">
<stop stop-color="#8084FF"/>
<stop offset="1" stop-color="#6F8EFF"/>
</linearGradient>
<linearGradient id="paint10_linear_0_1" x1="0" y1="0" x2="205.548" y2="152.552" gradientUnits="userSpaceOnUse">
<stop stop-color="#93A5FC"/>
<stop offset="1" stop-color="#93AAFC"/>
</linearGradient>
<linearGradient id="paint11_linear_0_1" x1="-1.84647e-05" y1="-0.0551867" x2="51.452" y2="-6.80514" gradientUnits="userSpaceOnUse">
<stop stop-color="#5844D7"/>
<stop offset="1" stop-color="#6580E1"/>
</linearGradient>
<linearGradient id="paint12_linear_0_1" x1="-5.24366" y1="24.1675" x2="17.357" y2="-46.4044" gradientUnits="userSpaceOnUse">
<stop stop-color="#8084FF"/>
<stop offset="1" stop-color="#6F8EFF"/>
</linearGradient>
<linearGradient id="paint13_linear_0_1" x1="0" y1="0" x2="204.634" y2="149.608" gradientUnits="userSpaceOnUse">
<stop stop-color="#93A5FC"/>
<stop offset="1" stop-color="#93AAFC"/>
</linearGradient>
<linearGradient id="paint14_linear_0_1" x1="-1.84647e-05" y1="-0.0551867" x2="51.452" y2="-6.80514" gradientUnits="userSpaceOnUse">
<stop stop-color="#5844D7"/>
<stop offset="1" stop-color="#6580E1"/>
</linearGradient>
<linearGradient id="paint15_linear_0_1" x1="-5.47145" y1="24.1675" x2="16.3538" y2="-46.9438" gradientUnits="userSpaceOnUse">
<stop stop-color="#8084FF"/>
<stop offset="1" stop-color="#6F8EFF"/>
</linearGradient>
<linearGradient id="paint16_linear_0_1" x1="0" y1="0" x2="207.707" y2="160.196" gradientUnits="userSpaceOnUse">
<stop stop-color="#93A5FC"/>
<stop offset="1" stop-color="#93AAFC"/>
</linearGradient>
<linearGradient id="paint17_linear_0_1" x1="-1.84647e-05" y1="-0.0551867" x2="51.452" y2="-6.80514" gradientUnits="userSpaceOnUse">
<stop stop-color="#5844D7"/>
<stop offset="1" stop-color="#6580E1"/>
</linearGradient>
<linearGradient id="paint18_linear_0_1" x1="-5.84454" y1="121.515" x2="177.241" y2="-5.21645" gradientUnits="userSpaceOnUse">
<stop stop-color="#8084FF"/>
<stop offset="1" stop-color="#6F8EFF"/>
</linearGradient>
<linearGradient id="paint19_linear_0_1" x1="146.008" y1="301.548" x2="470.796" y2="351.552" gradientUnits="userSpaceOnUse">
<stop stop-color="#93A5FC"/>
<stop offset="1" stop-color="#93AAFC"/>
</linearGradient>
<linearGradient id="paint20_linear_0_1" x1="408.504" y1="452.818" x2="648.848" y2="423.595" gradientUnits="userSpaceOnUse">
<stop stop-color="#5844D7"/>
<stop offset="1" stop-color="#6580E1"/>
</linearGradient>
</defs>
</svg>
